<?xml version="1.0" encoding="UTF-8" standalone="no"?>
<!-- Created with Inkscape (http://www.inkscape.org/) -->

<svg
   version="1.1"
   id="svg2"
   width="248.53532"
   height="184.60201"
   viewBox="0 0 248.53533 184.60201"
   xmlns="http://www.w3.org/2000/svg"
   xmlns:svg="http://www.w3.org/2000/svg">
  <g
     id="g10"
     transform="matrix(1.3333333,0,0,-1.3333333,-353.37928,232.45301)">
    <g
       id="g14"
       transform="translate(1.1947432,7.1684595)">
      <g
         id="g674"
         transform="translate(309.9529,145.1934)"
         clip-path="url(#clipPath3100)">
        <path
           d="M 0,0 C 0.079,0 4.358,-0.01 8.41,-0.441 8.265,0.426 8.124,1.175 8.003,1.647 7.728,2.129 4.699,3.062 0.603,3.062 -2.986,3.062 -4.201,2.313 -4.238,2.039 -4.319,1.424 -4.411,0.658 -4.504,-0.147 -3.261,-0.055 -1.78,0 0,0"
           style="fill:#f4efec;fill-opacity:1;fill-rule:nonzero;stroke:none"
           id="path676" />
      </g>
      <g
         id="g678"
         transform="translate(445.9518,119.8975)"
         clip-path="url(#clipPath3094)">
        <path
           d="m 0,0 c -0.435,1.355 -0.868,1.665 -0.986,1.666 -1.013,0.014 -2.406,0.005 -3.757,-0.011 0.691,-1.298 1.265,-3.964 1.715,-9.154 0.104,-1.206 0.196,-2.529 0.278,-3.929 1.19,0.339 2.253,0.663 2.85,0.895 C 0.915,-9.931 1.181,-3.688 0,0"
           style="fill:#d6cfc9;fill-opacity:1;fill-rule:nonzero;stroke:none"
           id="path680" />
      </g>
      <g
         id="g682"
         transform="translate(442.9235,112.3983)"
         clip-path="url(#clipPath3088)">
        <path
           d="M 0,0 C -0.45,5.19 -1.023,7.857 -1.714,9.154 -0.364,9.17 1.029,9.179 2.042,9.165 2.16,9.164 2.594,8.855 3.028,7.499 4.21,3.811 3.943,-2.432 3.128,-3.033 2.531,-3.266 1.469,-3.59 0.278,-3.928 0.196,-2.529 0.104,-1.206 0,0 m -37.388,-23.128 c 1.179,-17.916 -12.537,-36.021 -29.953,-39.537 -2.151,-0.435 -4.381,-0.655 -6.628,-0.655 -16.073,0 -31.379,10.743 -36.394,25.543 -3.865,11.412 -1.172,25.68 6.862,36.349 6.503,8.64 16.717,13.927 27.324,14.141 0.22,0.005 0.441,0.007 0.663,0.007 19.05,0 36.866,-16.753 38.126,-35.848 m 10.866,54.385 c 7.696,0 13.502,-1.037 14.087,-1.698 0.404,-0.944 0.932,-2.904 1.405,-4.844 -2.113,0.002 -12.067,0.023 -25.933,0.053 0.318,1.783 0.701,3.846 1.004,5.222 0.297,0.49 3.12,1.267 9.437,1.267 m -32.5,17.818 c -0.12,0.413 -0.4,0.727 -0.791,0.883 -0.316,0.127 -0.74,0.266 -1.211,0.422 -1.179,0.385 -3.37,1.104 -3.676,1.837 -0.026,0.062 -0.046,0.14 0.033,0.298 0.139,0.278 1.078,0.721 3.005,0.721 2.859,0 5.773,-0.941 6.497,-2.099 0.581,-0.93 0.486,-2.436 0.168,-3.892 -1.044,0.084 -2.479,0.165 -4.177,0.239 0.19,0.614 0.273,1.173 0.152,1.591 M -77.14,46.309 c 10.755,0 22.239,-0.405 23.431,-0.744 1.261,-0.7 5.881,-10.549 10.154,-20.783 -18.862,0.041 -42.967,0.095 -64.452,0.143 4.573,8.232 10.537,18.767 11.746,20.18 1.14,0.904 9.86,1.204 19.121,1.204 m -16.073,4.828 c 0.724,1.158 3.638,2.099 6.497,2.099 1.928,0 2.867,-0.443 3.006,-0.722 0.079,-0.157 0.059,-0.235 0.033,-0.297 -0.307,-0.733 -2.498,-1.452 -3.676,-1.837 -0.472,-0.156 -0.895,-0.295 -1.212,-0.422 -0.39,-0.156 -0.67,-0.47 -0.79,-0.883 -0.114,-0.391 -0.045,-0.908 0.118,-1.476 -1.732,-0.092 -3.089,-0.205 -4.15,-0.327 -0.313,1.448 -0.403,2.94 0.174,3.865 m -39.155,-15.28 c 4.097,0 7.125,-0.933 7.4,-1.415 0.121,-0.472 0.262,-1.221 0.408,-2.088 -4.053,0.431 -8.332,0.441 -8.411,0.441 -1.78,0 -3.261,-0.055 -4.503,-0.147 0.092,0.806 0.184,1.571 0.266,2.186 0.037,0.274 1.251,1.023 4.84,1.023 m -0.603,-4.6 c 7.697,0 13.502,-1.037 14.088,-1.698 0.388,-0.906 0.89,-2.75 1.348,-4.613 -9.766,0.022 -18.653,0.042 -25.833,0.058 0.309,1.728 0.671,3.67 0.961,4.986 0.296,0.49 3.119,1.267 9.436,1.267 m -28.247,-7.75 c 1.453,-0.003 145.277,-0.329 150.475,-0.329 4.599,0 7.445,-4.035 7.445,-7.773 v -5.146 c -3.742,-0.003 -34.677,-0.145 -55.297,-0.241 -5.248,2.689 -11.025,4.24 -16.919,4.24 -0.231,0 -0.464,-0.002 -0.695,-0.007 -5.702,-0.116 -11.29,-1.644 -16.301,-4.32 h -76.479 v 7.773 c 0,3.687 2.833,5.803 7.771,5.803 m 4.21,6.765 c 4.095,0 7.124,-0.933 7.399,-1.415 0.198,-0.771 0.448,-2.269 0.684,-3.84 -7.436,0.017 -12.037,0.027 -12.291,0.028 -0.386,0 -0.761,-0.016 -1.128,-0.041 0.162,1.497 0.345,3.113 0.495,4.245 0.037,0.274 1.251,1.023 4.841,1.023 M -176.747,7.496 c 0.435,1.359 0.869,1.668 0.987,1.669 0.319,0.004 0.673,0.005 1.053,0.005 1.017,0 2.212,-0.011 3.331,-0.026 -0.483,-1.245 -0.924,-4.463 -1.33,-12.803 -0.01,-0.2 -0.018,-0.419 -0.028,-0.622 -1.661,0.454 -3.295,0.928 -4.087,1.236 -0.84,0.612 -1.106,6.853 0.074,10.541 m 6.703,0.897 h 74.919 c -3.659,-2.354 -6.935,-5.349 -9.605,-8.896 -8.331,-11.064 -11.113,-25.888 -7.088,-37.766 3.39,-10.008 11.297,-18.23 21.003,-22.765 h -79.344 c -2.14,4.119 -2.028,63.984 0.115,69.427 m 1.055,-73.482 v 2.517 h 81.938 c 4.177,-1.474 8.6,-2.285 13.082,-2.285 2.349,0 4.682,0.23 6.932,0.684 1.863,0.376 3.683,0.921 5.452,1.601 h 58.287 v -3.502 c 0,-6.593 -2.657,-7.117 -6.13,-7.117 h -151.459 c -6.697,0 -8.102,4.406 -8.102,8.102 m 165.848,4.055 h -55.001 c 13.659,6.964 23.306,22.549 22.288,38.007 -0.852,12.911 -8.984,24.786 -20.013,31.52 20.559,0.096 49.121,0.227 52.602,0.229 0.13,-0.129 0.645,-0.814 1.151,-3.917 2.596,-15.948 0.863,-62.062 -1.027,-65.839 M 2.06,10.703 c -1.03,0.013 -2.449,0.004 -3.82,-0.013 v 4.715 c 0,4.109 -2.898,8.506 -7.661,9.204 -0.517,2.149 -1.126,4.446 -1.6,5.555 -1.115,2.601 -15.357,2.631 -15.501,2.631 -10.385,0 -10.792,-1.836 -10.926,-2.44 -0.33,-1.484 -0.744,-3.722 -1.076,-5.584 -1.099,0.002 -2.217,0.005 -3.36,0.008 -3.434,8.289 -9.255,21.646 -11.358,22.248 -0.048,0.013 -0.134,0.027 -0.207,0.041 0.347,1.689 0.42,3.552 -0.412,4.884 -1.158,1.852 -4.801,2.821 -7.801,2.821 -1.342,0 -3.698,-0.204 -4.381,-1.57 -0.262,-0.525 -0.288,-1.07 -0.077,-1.577 0.578,-1.384 2.817,-2.118 4.616,-2.708 0.389,-0.127 0.74,-0.242 1.019,-0.348 0.018,-0.206 -0.088,-0.57 -0.272,-1.022 -4.126,0.156 -9.401,0.268 -14.5,0.289 -5.342,0.029 -9.366,-0.04 -12.416,-0.165 -0.153,0.395 -0.236,0.71 -0.22,0.898 0.279,0.106 0.631,0.221 1.019,0.348 1.799,0.59 4.039,1.324 4.616,2.708 0.212,0.507 0.186,1.052 -0.077,1.576 -0.682,1.367 -3.038,1.571 -4.381,1.571 -3,0 -6.643,-0.969 -7.8,-2.821 -0.835,-1.335 -0.759,-3.205 -0.41,-4.897 -1.979,-0.342 -2.296,-0.712 -2.478,-0.924 -1.468,-1.713 -8.507,-14.263 -12.358,-21.202 -2.093,0.004 -4.158,0.009 -6.189,0.014 -0.498,2.049 -1.068,4.17 -1.518,5.221 -0.426,0.993 -2.765,1.61 -5.501,1.995 -0.178,1.099 -0.356,2.072 -0.508,2.665 -0.652,2.541 -8.808,2.571 -8.89,2.571 -2.76,0 -6.106,-0.409 -6.364,-2.358 -0.094,-0.708 -0.201,-1.603 -0.307,-2.538 -4.503,-0.545 -4.757,-1.691 -4.858,-2.144 -0.316,-1.422 -0.709,-3.534 -1.033,-5.347 -0.84,0.002 -1.653,0.004 -2.439,0.005 -0.253,1.696 -0.529,3.361 -0.75,4.226 -0.652,2.541 -8.807,2.571 -8.889,2.571 -2.761,0 -6.106,-0.409 -6.365,-2.359 -0.165,-1.237 -0.367,-3.043 -0.539,-4.646 -4.139,-0.76 -6.615,-3.333 -6.615,-7.101 V 10.67 c -1.736,0.026 -3.849,0.049 -5.251,0.033 -1.364,-0.015 -2.34,-1.586 -2.902,-4.668 -0.454,-2.494 -0.996,-9.615 1.276,-10.5 0.915,-0.357 2.782,-0.895 4.6,-1.39 -0.312,-7.319 -0.49,-16.291 -0.49,-25.048 0,-30.53 1.74,-31.628 2.767,-31.667 v -2.519 c 0,-6.125 3.514,-9.639 9.64,-9.639 H -9.428 c 3.71,0 7.668,0.668 7.668,8.654 v 4.368 c 0.564,1.297 1.138,4.54 1.676,12.662 0.513,7.761 0.808,17.681 0.808,27.218 0,6.159 -0.125,11.679 -0.361,16.325 1.366,0.384 2.625,0.763 3.324,1.036 2.078,0.81 1.85,7.347 1.274,10.503 -0.56,3.08 -1.537,4.65 -2.901,4.665"
           style="fill:#473833;fill-opacity:1;fill-rule:nonzero;stroke:none"
           id="path684" />
      </g>
      <g
         id="g686"
         transform="translate(270.1895,108.1174)"
         clip-path="url(#clipPath3082)">
        <path
           d="m 0,0 c 0.01,0.203 0.018,0.422 0.028,0.622 0.406,8.34 0.847,11.558 1.33,12.803 -1.119,0.014 -2.314,0.026 -3.331,0.026 -0.38,0 -0.734,-0.001 -1.053,-0.005 -0.118,-10e-4 -0.552,-0.31 -0.987,-1.669 C -5.193,8.089 -4.927,1.848 -4.087,1.236 -3.295,0.928 -1.661,0.454 0,0"
           style="fill:#d6cfc9;fill-opacity:1;fill-rule:nonzero;stroke:none"
           id="path688" />
      </g>
      <g
         id="g690"
         transform="translate(431.8936,137.1137)"
         clip-path="url(#clipPath3076)">
        <path
           d="m 0,0 c -0.474,1.94 -1.001,3.9 -1.405,4.843 -0.586,0.662 -6.391,1.699 -14.087,1.699 -6.317,0 -9.14,-0.778 -9.437,-1.267 C -25.232,3.899 -25.615,1.836 -25.933,0.052 -12.067,0.023 -2.113,0.002 0,0"
           style="fill:#44676b;fill-opacity:1;fill-rule:nonzero;stroke:none"
           id="path692" />
      </g>
      <g
         id="g694"
         transform="translate(325.3886,137.3445)"
         clip-path="url(#clipPath3070)">
        <path
           d="m 0,0 c -0.458,1.863 -0.96,3.707 -1.348,4.612 -0.586,0.662 -6.391,1.699 -14.088,1.699 -6.317,0 -9.14,-0.778 -9.436,-1.267 -0.29,-1.316 -0.653,-3.258 -0.961,-4.986 C -18.653,0.042 -9.766,0.022 0,0"
           style="fill:#44676b;fill-opacity:1;fill-rule:nonzero;stroke:none"
           id="path696" />
      </g>
      <g
         id="g698"
         transform="translate(281.7078,137.4429)"
         clip-path="url(#clipPath3064)">
        <path
           d="m 0,0 c 0.254,-0.001 4.855,-0.011 12.29,-0.028 -0.235,1.571 -0.486,3.07 -0.683,3.84 -0.276,0.483 -3.304,1.416 -7.399,1.416 -3.59,0 -4.805,-0.75 -4.842,-1.023 C -0.784,3.072 -0.966,1.457 -1.128,-0.04 -0.762,-0.015 -0.387,0 0,0"
           style="fill:#44676b;fill-opacity:1;fill-rule:nonzero;stroke:none"
           id="path700" />
      </g>
      <g
         id="g702"
         transform="translate(353.568,161.4733)"
         clip-path="url(#clipPath3058)">
        <path
           d="M 0,0 C 0.12,0.413 0.4,0.727 0.791,0.883 1.107,1.01 1.531,1.149 2.002,1.305 3.18,1.69 5.372,2.409 5.678,3.143 5.704,3.204 5.724,3.282 5.645,3.439 5.506,3.718 4.567,4.161 2.64,4.161 -0.219,4.161 -3.133,3.22 -3.857,2.062 -4.435,1.137 -4.344,-0.355 -4.031,-1.803 -2.97,-1.681 -1.613,-1.568 0.118,-1.476 -0.045,-0.908 -0.114,-0.391 0,0"
           style="fill:#f4efec;fill-opacity:1;fill-rule:nonzero;stroke:none"
           id="path704" />
      </g>
      <g
         id="g706"
         transform="translate(387.9266,159.6429)"
         clip-path="url(#clipPath3052)">
        <path
           d="M 0,0 C 0.318,1.456 0.413,2.962 -0.168,3.893 -0.892,5.05 -3.806,5.991 -6.665,5.991 -8.592,5.991 -9.531,5.549 -9.67,5.27 -9.749,5.112 -9.729,5.034 -9.703,4.973 -9.397,4.239 -7.206,3.52 -6.027,3.135 -5.556,2.98 -5.132,2.841 -4.816,2.713 -4.426,2.557 -4.145,2.244 -4.025,1.83 -3.904,1.413 -3.987,0.853 -4.177,0.24 -2.479,0.165 -1.044,0.084 0,0"
           style="fill:#f4efec;fill-opacity:1;fill-rule:nonzero;stroke:none"
           id="path708" />
      </g>
      <g
         id="g710"
         transform="translate(346.6624,157.503)"
         clip-path="url(#clipPath3046)">
        <path
           d="m 0,0 c -1.209,-1.413 -7.172,-11.948 -11.746,-20.18 21.485,-0.048 45.59,-0.102 64.452,-0.143 C 48.433,-10.089 43.813,-0.24 42.552,0.46 41.36,0.799 29.876,1.204 19.121,1.204 9.86,1.204 1.14,0.904 0,0"
           style="fill:#d6cfc9;fill-opacity:1;fill-rule:nonzero;stroke:none"
           id="path712" />
      </g>
      <g
         id="g714"
         transform="translate(273.9343,130.1028)"
         clip-path="url(#clipPath3040)">
        <path
           d="m 0,0 v -7.774 h 76.479 c 5.011,2.677 10.599,4.205 16.301,4.32 0.231,0.005 0.464,0.007 0.695,0.007 5.894,0 11.671,-1.551 16.919,-4.24 20.62,0.097 51.555,0.239 55.297,0.242 V -2.3 c 0,3.739 -2.846,7.773 -7.445,7.773 C 153.049,5.473 9.224,5.799 7.771,5.802 2.833,5.802 0,3.687 0,0"
           style="fill:#f4efec;fill-opacity:1;fill-rule:nonzero;stroke:none"
           id="path716" />
      </g>
      <g
         id="g718"
         transform="translate(439.6258,46.3245)"
         clip-path="url(#clipPath3034)">
        <path
           d="m 0,0 v 3.502 h -58.287 c -1.77,-0.68 -3.589,-1.225 -5.452,-1.601 -2.251,-0.454 -4.583,-0.685 -6.932,-0.685 -4.482,0 -8.905,0.811 -13.082,2.286 h -81.938 V 0.985 c 0,-3.696 1.405,-8.102 8.101,-8.102 H -6.131 C -2.657,-7.117 0,-6.593 0,0"
           style="fill:#f4efec;fill-opacity:1;fill-rule:nonzero;stroke:none"
           id="path720" />
      </g>
      <g
         id="g722"
         transform="translate(437.8679,56.5227)"
         clip-path="url(#clipPath3028)">
        <path
           d="m 0,0 c -0.251,-1.115 -0.688,-1.771 -1.337,-2.002 -1.564,-0.559 -11.236,-0.587 -13.159,-0.587 -1.92,0 -11.589,0.027 -13.346,0.577 -0.872,0.272 -1.513,1.162 -1.905,2.644 -0.822,3.107 -0.432,8.341 1.283,10.18 2.338,2.506 15.873,2.578 17.409,2.578 3.792,0 8.505,-0.193 9.424,-1.113 C -0.118,10.764 0.708,3.147 0,0 M 2.941,60.681 C 2.436,63.783 1.92,64.469 1.791,64.597 -1.691,64.595 -30.253,64.465 -50.812,64.369 -39.783,57.635 -31.65,45.76 -30.799,32.848 -29.781,17.39 -39.427,1.805 -53.087,-5.159 H 1.915 c 1.889,3.777 3.622,49.891 1.026,65.84"
           style="fill:#547c80;fill-opacity:1;fill-rule:nonzero;stroke:none"
           id="path724" />
      </g>
      <g
         id="g726"
         transform="translate(311.3935,114.924)"
         clip-path="url(#clipPath3022)">
        <path
           d="m 0,0 c 1.97,2.041 5.08,2.398 7.659,0.791 2.866,-1.784 3.968,-5.793 2.405,-8.753 -1.084,-2.053 -3.257,-3.379 -5.533,-3.379 -1.149,0 -2.265,0.336 -3.228,0.972 -1.861,1.229 -3.061,3.299 -3.135,5.404 C -1.898,-3.054 -1.247,-1.291 0,0 m 14.205,-40.017 v -9.051 c 2.047,-1.631 2.78,-4.694 1.556,-7.013 -0.915,-1.732 -2.748,-2.852 -4.67,-2.852 -0.972,0 -1.915,0.284 -2.729,0.822 -1.565,1.036 -2.577,2.78 -2.639,4.552 -0.055,1.609 0.494,3.093 1.545,4.182 0.147,0.152 0.31,0.279 0.471,0.408 v 9.692 c 0,1.585 1.117,2.651 2.78,2.651 1.773,0 3.686,-1.297 3.686,-3.391 M -38.629,-63.56 h 79.344 c -9.706,4.535 -17.613,12.757 -21.003,22.765 -4.025,11.878 -1.243,26.702 7.088,37.767 2.67,3.547 5.946,6.541 9.605,8.895 h -74.919 c -2.143,-5.443 -2.255,-65.307 -0.115,-69.427"
           style="fill:#547c80;fill-opacity:1;fill-rule:nonzero;stroke:none"
           id="path728" />
      </g>
      <g
         id="g730"
         transform="translate(399.3815,88.9214)"
         clip-path="url(#clipPath3016)">
        <path
           d="m 0,0 c 1.004,-15.212 -10.217,-30.018 -25.015,-33.004 -1.807,-0.365 -3.679,-0.55 -5.565,-0.55 -13.404,0 -26.171,8.97 -30.358,21.329 -3.229,9.529 -0.998,21.419 5.68,30.29 5.446,7.233 14.003,11.658 22.888,11.838 0.186,0.004 0.373,0.005 0.558,0.005 C -15.914,29.908 -1.049,15.933 0,0 M -59.959,22.049 C -67.993,11.38 -70.686,-2.888 -66.821,-14.3 c 5.015,-14.8 20.321,-25.543 36.394,-25.543 2.247,0 4.477,0.22 6.628,0.655 17.416,3.516 31.132,21.621 29.953,39.536 -1.26,19.096 -19.076,35.849 -38.126,35.849 -0.222,0 -0.443,-0.002 -0.663,-0.007 -10.607,-0.214 -20.821,-5.501 -27.324,-14.141"
           style="fill:#d6cfc9;fill-opacity:1;fill-rule:nonzero;stroke:none"
           id="path732" />
      </g>
      <g
         id="g734"
         transform="translate(371.6589,69.6271)"
         clip-path="url(#clipPath3010)">
        <path
           d="m 0,0 c -1.016,-0.205 -2.067,-0.308 -3.126,-0.308 -7.51,0 -14.663,5.026 -17.008,11.953 -1.81,5.341 -0.565,11.999 3.171,16.962 3.057,4.058 7.858,6.541 12.846,6.642 l 0.313,0.003 c 8.908,0 17.237,-7.83 17.825,-16.756 C 14.583,9.971 8.293,1.674 0,0 m -4.089,47.665 c -0.176,0 -0.351,-10e-4 -0.526,-0.005 -8.419,-0.171 -16.527,-4.367 -21.691,-11.226 -6.382,-8.477 -8.523,-19.81 -5.454,-28.873 3.982,-11.753 16.137,-20.283 28.903,-20.283 1.784,0 3.554,0.175 5.261,0.52 C 16.235,-9.411 27.127,4.966 26.189,19.193 25.19,34.361 11.04,47.665 -4.089,47.665"
           style="fill:#fae4b9;fill-opacity:1;fill-rule:nonzero;stroke:none"
           id="path736" />
      </g>
      <g
         id="g738"
         transform="translate(374.0626,57.4247)"
         clip-path="url(#clipPath3004)">
        <path
           d="m 0,0 c -1.707,-0.344 -3.477,-0.52 -5.261,-0.52 -12.766,0 -24.92,8.531 -28.903,20.284 -3.069,9.063 -0.928,20.395 5.454,28.873 5.164,6.858 13.272,11.055 21.691,11.225 0.175,0.004 0.351,0.005 0.526,0.005 15.13,0 29.279,-13.304 30.278,-28.471 C 24.723,17.169 13.831,2.791 0,0 m -7.051,61.4 c -8.886,-0.181 -17.442,-4.605 -22.888,-11.838 -6.678,-8.871 -8.909,-20.761 -5.68,-30.291 4.186,-12.358 16.953,-21.328 30.358,-21.328 1.886,0 3.758,0.185 5.565,0.549 14.798,2.987 26.019,17.793 25.015,33.005 -1.049,15.932 -15.915,29.908 -31.812,29.908 -0.185,0 -0.372,-10e-4 -0.558,-0.005"
           style="fill:#473833;fill-opacity:1;fill-rule:nonzero;stroke:none"
           id="path740" />
      </g>
      <g
         id="g742"
         transform="translate(384.1457,88.0214)"
         clip-path="url(#clipPath2998)">
        <path
           d="m 0,0 c -0.539,8.161 -8.15,15.32 -16.291,15.32 l -0.281,-0.003 c -4.52,-0.091 -8.874,-2.346 -11.648,-6.03 -3.44,-4.568 -4.596,-10.67 -2.945,-15.544 2.107,-6.219 8.792,-10.908 15.552,-10.908 0.957,0 1.906,0.093 2.822,0.278 C -5.353,-15.386 0.505,-7.652 0,0"
           style="fill:#2b595c;fill-opacity:1;fill-rule:nonzero;stroke:none"
           id="path744" />
      </g>
      <g
         id="g746"
         transform="translate(368.5325,70.8565)"
         clip-path="url(#clipPath2992)">
        <path
           d="m 0,0 c -6.759,0 -13.445,4.689 -15.552,10.908 -1.651,4.874 -0.495,10.976 2.945,15.544 2.774,3.684 7.128,5.939 11.648,6.03 l 0.281,0.003 c 8.141,0 15.753,-7.159 16.291,-15.32 C 16.118,9.512 10.26,1.779 2.822,0.278 1.906,0.093 0.957,0 0,0 M -0.678,34.022 -0.991,34.02 C -5.979,33.918 -10.78,31.436 -13.836,27.377 -17.572,22.415 -18.818,15.756 -17.008,10.415 -14.662,3.489 -7.509,-1.538 0,-1.538 c 1.059,0 2.11,0.103 3.126,0.309 C 11.42,0.445 17.71,8.742 17.147,17.267 16.559,26.193 8.23,34.022 -0.678,34.022"
           style="fill:#473833;fill-opacity:1;fill-rule:nonzero;stroke:none"
           id="path748" />
      </g>
      <g
         id="g750"
         transform="translate(321.9121,76.76)"
         clip-path="url(#clipPath2986)">
        <path
           d="m 0,0 c -0.464,0 -1.242,-0.145 -1.242,-1.113 v -8.848 c 1.072,0.356 2.256,0.34 3.39,-0.074 v 8.182 C 2.148,-0.589 0.867,0 0,0"
           style="fill:#d6cfc9;fill-opacity:1;fill-rule:nonzero;stroke:none"
           id="path752" />
      </g>
      <g
         id="g754"
         transform="translate(324.0605,66.7254)"
         clip-path="url(#clipPath2980)">
        <path
           d="m 0,0 c -1.134,0.414 -2.318,0.43 -3.391,0.074 v 8.847 c 0,0.968 0.779,1.114 1.243,1.114 C -1.281,10.035 0,9.446 0,8.182 Z m -1.576,-9.197 c -0.669,0 -1.32,0.197 -1.881,0.568 -1.158,0.766 -1.905,2.038 -1.949,3.323 -0.041,1.187 0.354,2.274 1.113,3.059 0.666,0.69 1.543,1.069 2.471,1.069 0.703,0 1.403,-0.213 2.077,-0.633 1.756,-1.094 2.434,-3.545 1.48,-5.352 -0.652,-1.236 -1.951,-2.034 -3.311,-2.034 M -4.928,8.921 V -0.77 c -0.161,-0.13 -0.324,-0.257 -0.471,-0.409 -1.051,-1.088 -1.6,-2.573 -1.545,-4.181 0.062,-1.772 1.074,-3.516 2.639,-4.552 0.814,-0.538 1.757,-0.822 2.729,-0.822 1.922,0 3.755,1.12 4.67,2.852 1.224,2.319 0.491,5.382 -1.556,7.012 v 9.052 c 0,2.094 -1.913,3.39 -3.686,3.39 -1.663,0 -2.78,-1.065 -2.78,-2.651"
           style="fill:#473833;fill-opacity:1;fill-rule:nonzero;stroke:none"
           id="path756" />
      </g>
      <g
         id="g758"
         transform="translate(324.3158,64.9139)"
         clip-path="url(#clipPath2974)">
        <path
           d="m 0,0 c -0.675,0.42 -1.375,0.634 -2.077,0.634 -0.928,0 -1.805,-0.38 -2.471,-1.069 -0.759,-0.785 -1.154,-1.873 -1.113,-3.06 0.044,-1.284 0.791,-2.557 1.949,-3.323 0.56,-0.371 1.211,-0.567 1.881,-0.567 1.36,0 2.659,0.798 3.311,2.033 C 2.434,-3.545 1.756,-1.093 0,0"
           style="fill:#d6cfc9;fill-opacity:1;fill-rule:nonzero;stroke:none"
           id="path760" />
      </g>
      <g
         id="g762"
         transform="translate(311.0992,110.0126)"
         clip-path="url(#clipPath2968)">
        <path
           d="m 0,0 c 0.056,-1.616 0.992,-3.215 2.444,-4.175 0.711,-0.469 1.534,-0.717 2.381,-0.717 1.714,0 3.352,1.005 4.174,2.561 1.2,2.272 0.348,5.354 -1.859,6.728 C 6.291,4.926 5.411,5.193 4.524,5.193 3.351,5.193 2.242,4.713 1.401,3.843 0.445,2.854 -0.052,1.49 0,0"
           style="fill:#ff6131;fill-opacity:1;fill-rule:nonzero;stroke:none"
           id="path764" />
      </g>
      <g
         id="g766"
         transform="translate(318.2391,114.4095)"
         clip-path="url(#clipPath2962)">
        <path
           d="m 0,0 c 2.207,-1.373 3.059,-4.456 1.859,-6.728 -0.822,-1.556 -2.46,-2.561 -4.174,-2.561 -0.846,0 -1.67,0.248 -2.381,0.717 -1.452,0.96 -2.388,2.559 -2.444,4.175 -0.052,1.49 0.446,2.854 1.401,3.843 0.841,0.87 1.95,1.35 3.123,1.35 C -1.729,0.796 -0.849,0.529 0,0 m -5.543,-9.855 c 0.963,-0.636 2.079,-0.972 3.228,-0.972 2.277,0 4.449,1.326 5.534,3.38 1.562,2.96 0.46,6.968 -2.406,8.752 -2.579,1.607 -5.688,1.251 -7.659,-0.79 -1.247,-1.292 -1.898,-3.055 -1.832,-4.966 0.075,-2.104 1.275,-4.175 3.135,-5.404"
           style="fill:#473833;fill-opacity:1;fill-rule:nonzero;stroke:none"
           id="path768" />
      </g>
      <g
         id="g770"
         transform="translate(426.8127,68.3748)"
         clip-path="url(#clipPath2956)">
        <path
           d="m 0,0 c -8.038,0 -15.191,-0.918 -16.285,-2.089 -1.176,-1.262 -1.667,-5.916 -0.92,-8.738 0.275,-1.042 0.645,-1.497 0.877,-1.57 0.94,-0.293 6.36,-0.506 12.887,-0.506 7.307,0 11.966,0.255 12.642,0.496 H 9.2 c -0.005,0 0.348,0.288 0.506,1.869 0.363,3.637 -0.624,9.13 -1.369,9.875 C 7.968,-0.423 5.342,0 0,0"
           style="fill:#d6cfc9;fill-opacity:1;fill-rule:nonzero;stroke:none"
           id="path772" />
      </g>
      <g
         id="g774"
         transform="translate(436.5184,57.8371)"
         clip-path="url(#clipPath2950)">
        <path
           d="m 0,0 c -0.158,-1.582 -0.511,-1.869 -0.505,-1.869 h 0.001 c -0.676,-0.241 -5.335,-0.497 -12.642,-0.497 -6.528,0 -11.948,0.214 -12.888,0.507 -0.232,0.073 -0.601,0.528 -0.877,1.57 -0.746,2.822 -0.256,7.476 0.92,8.737 1.095,1.172 8.248,2.09 16.285,2.09 5.342,0 7.968,-0.424 8.338,-0.663 C -0.624,9.13 0.363,3.637 0,0 m -9.706,12.075 c -1.535,0 -15.07,-0.072 -17.409,-2.577 -1.715,-1.839 -2.104,-7.073 -1.282,-10.181 0.391,-1.481 1.033,-2.371 1.905,-2.644 1.757,-0.549 11.425,-0.576 13.346,-0.576 1.923,0 11.594,0.028 13.158,0.586 0.65,0.232 1.086,0.887 1.338,2.003 0.707,3.147 -0.119,10.764 -1.631,12.276 -0.919,0.92 -5.632,1.113 -9.425,1.113"
           style="fill:#473833;fill-opacity:1;fill-rule:nonzero;stroke:none"
           id="path776" />
      </g>
      <g
         id="g778"
         transform="translate(272.764,51.364)"
         clip-path="url(#clipPath2944)">
        <path
           d="m 0,0 h 79.344 c -8.662,4.048 -15.882,11.037 -19.747,19.607 -2.254,0.078 -4.508,0.169 -6.763,0.286 v -5.401 c 2.047,-1.631 2.781,-4.693 1.557,-7.013 -0.915,-1.732 -2.748,-2.852 -4.67,-2.852 -0.972,0 -1.915,0.284 -2.729,0.822 -1.566,1.036 -2.577,2.78 -2.639,4.552 -0.055,1.609 0.493,3.093 1.544,4.182 0.147,0.152 0.31,0.279 0.471,0.409 v 5.682 C 38.813,20.763 31.263,21.4 23.737,22.042 15.31,22.761 6.849,23.488 -1.502,24.784 -1.355,12.292 -0.859,1.654 0,0"
           style="fill:#44676b;fill-opacity:1;fill-rule:nonzero;stroke:none"
           id="path780" />
      </g>
      <g
         id="g782"
         transform="translate(426.8127,69.9124)"
         clip-path="url(#clipPath2938)">
        <path
           d="m 0,0 c 3.792,0 8.505,-0.193 9.424,-1.113 1.513,-1.513 2.339,-9.129 1.631,-12.277 -0.251,-1.115 -0.688,-1.771 -1.337,-2.002 -1.564,-0.559 -11.236,-0.587 -13.159,-0.587 -1.92,0 -11.589,0.028 -13.345,0.577 -0.872,0.272 -1.514,1.162 -1.906,2.644 -0.821,3.107 -0.432,8.341 1.283,10.18 C -15.071,-0.072 -1.536,0 0,0 M -42.032,-18.548 H 12.97 c 1.329,2.656 2.58,26.256 2.303,45.573 C 3.824,20.895 -7.999,15.511 -20.178,11.265 -22.282,-1.26 -30.797,-12.82 -42.032,-18.548"
           style="fill:#44676b;fill-opacity:1;fill-rule:nonzero;stroke:none"
           id="path784" />
      </g>
      <g
         id="g786"
         transform="translate(277.3489,117.4612)"
         clip-path="url(#clipPath2932)">
        <path
           d="m 0,0 c -0.001,1.177 -1.686,1.131 -1.794,0 -0.621,-6.511 -2.384,-14.297 -0.872,-20.727 0.199,-0.846 1.357,-0.741 1.606,0 C 1.045,-14.48 0.008,-6.528 0,0"
           style="fill:#769a9f;fill-opacity:1;fill-rule:nonzero;stroke:none"
           id="path788" />
      </g>
      <g
         id="g790"
         transform="translate(276.5856,88.531)"
         clip-path="url(#clipPath2926)">
        <path
           d="M 0,0 C 0,0.017 0.002,0.024 0.002,0.043 0.059,0.496 0.083,0.954 0.122,1.409 0.195,2.27 0.39,3.183 0.131,4.024 -0.087,4.728 -1.031,4.863 -1.421,4.226 -1.827,3.563 -1.876,2.796 -2.001,2.041 -2.128,1.278 -2.531,0.153 -2.322,-0.607 c 0.33,-1.2 1.868,-1.388 2.504,-0.355 C 0.411,-0.59 0.277,-0.218 0,0"
           style="fill:#769a9f;fill-opacity:1;fill-rule:nonzero;stroke:none"
           id="path792" />
      </g>
      <g
         id="g794"
         transform="translate(308.0048,142.3074)"
         clip-path="url(#clipPath2920)">
        <path
           d="m 0,0 c -1.003,0.155 -1.911,0.003 -2.904,-0.16 -0.966,-0.159 -2.036,-0.095 -2.865,-0.677 -0.27,-0.19 -0.264,-0.529 0,-0.72 0.786,-0.567 1.771,-0.497 2.702,-0.473 1.136,0.029 2.249,0.124 3.237,0.727 C 0.648,-1.011 0.645,-0.1 0,0"
           style="fill:#547c80;fill-opacity:1;fill-rule:nonzero;stroke:none"
           id="path796" />
      </g>
      <g
         id="g798"
         transform="translate(312.9504,142.0591)"
         clip-path="url(#clipPath2914)">
        <path
           d="m 0,0 c -0.261,0.006 -0.494,-0.066 -0.754,-0.003 -0.282,0.068 -0.574,0.096 -0.857,0.168 -0.716,0.181 -1.212,-0.687 -0.709,-1.219 0.425,-0.449 0.957,-0.641 1.566,-0.526 0.448,0.084 1.001,0.393 1.19,0.821 C 0.588,-0.414 0.413,-0.01 0,0"
           style="fill:#547c80;fill-opacity:1;fill-rule:nonzero;stroke:none"
           id="path800" />
      </g>
      <g
         id="g802"
         transform="translate(286.4171,141.5489)"
         clip-path="url(#clipPath2908)">
        <path
           d="m 0,0 c -1.245,-0.211 -2.637,-0.363 -3.732,-1.045 -0.467,-0.291 -0.286,-1.045 0.283,-1.045 1.295,10e-4 2.553,0.604 3.726,1.086 C 0.895,-0.75 0.67,0.113 0,0"
           style="fill:#547c80;fill-opacity:1;fill-rule:nonzero;stroke:none"
           id="path804" />
      </g>
      <g
         id="g806"
         transform="translate(423.9785,94.8643)"
         clip-path="url(#clipPath2902)">
        <path
           d="m 0,0 c -2.211,-0.42 -4.199,-1.458 -6.235,-2.389 -2.595,-1.185 -5.231,-2.306 -7.748,-3.651 -0.725,-0.387 -0.226,-1.597 0.561,-1.332 2.367,0.795 4.664,1.786 6.976,2.726 2.38,0.968 4.92,1.783 7.014,3.299 C 1.249,-0.854 0.842,0.16 0,0"
           style="fill:#44676b;fill-opacity:1;fill-rule:nonzero;stroke:none"
           id="path808" />
      </g>
      <g
         id="g810"
         transform="translate(434.1994,99.9424)"
         clip-path="url(#clipPath2896)">
        <path
           d="m 0,0 c -0.839,0.082 -1.649,-0.413 -2.312,-0.873 -0.735,-0.509 -1.447,-1.053 -2.167,-1.583 -0.523,-0.385 -0.783,-1.027 -0.428,-1.633 0.309,-0.528 1.098,-0.8 1.633,-0.428 0.733,0.509 1.476,1.007 2.194,1.537 0.726,0.536 1.552,1.15 1.767,2.078 C 0.8,-0.419 0.469,-0.046 0,0"
           style="fill:#44676b;fill-opacity:1;fill-rule:nonzero;stroke:none"
           id="path812" />
      </g>
      <g
         id="g814"
         transform="translate(298.8313,77.9822)"
         clip-path="url(#clipPath2890)">
        <path
           d="m 0,0 c -6.329,0.987 -12.8,0.977 -19.191,0.866 -1.047,-0.018 -1.039,-1.57 0,-1.618 6.314,-0.29 12.636,-0.932 18.957,-0.978 C 0.735,-1.738 1.001,-0.156 0,0"
           style="fill:#44676b;fill-opacity:1;fill-rule:nonzero;stroke:none"
           id="path816" />
      </g>
      <g
         id="g818"
         transform="translate(308.7975,77.6814)"
         clip-path="url(#clipPath2884)">
        <path
           d="m 0,0 c -1.538,0.327 -2.989,0.315 -4.555,0.291 -1.301,-0.02 -1.301,-1.999 0,-2.018 C -2.989,-1.751 -1.538,-1.763 0,-1.436 0.713,-1.285 0.713,-0.152 0,0"
           style="fill:#44676b;fill-opacity:1;fill-rule:nonzero;stroke:none"
           id="path820" />
      </g>
      <g
         id="g822"
         transform="translate(349.0448,155.6034)"
         clip-path="url(#clipPath2878)">
        <path
           d="m 0,0 c -2.073,-2.036 -4.68,-4.251 -5.655,-7.054 -0.16,-0.462 0.439,-0.941 0.847,-0.651 2.368,1.678 3.976,4.45 5.907,6.606 C 1.763,-0.356 0.72,0.707 0,0"
           style="fill:#ffffff;fill-opacity:1;fill-rule:nonzero;stroke:none"
           id="path824" />
      </g>
      <g
         id="g826"
         transform="translate(342.1399,146.0134)"
         clip-path="url(#clipPath2872)">
        <path
           d="m 0,0 c -0.428,-0.735 -1.14,-1.402 -1.27,-2.264 -0.057,-0.38 0.234,-0.812 0.67,-0.67 0.992,0.322 1.436,1.326 1.817,2.223 C 1.562,0.1 0.47,0.808 0,0"
           style="fill:#ffffff;fill-opacity:1;fill-rule:nonzero;stroke:none"
           id="path828" />
      </g>
      <g
         id="g830"
         transform="translate(358.1472,113.4629)"
         clip-path="url(#clipPath2866)">
        <path
           d="m 0,0 c -6.617,-2.404 -13.656,-8.504 -15.427,-15.519 -0.204,-0.807 0.822,-1.155 1.273,-0.537 2.074,2.837 3.879,5.784 6.352,8.31 2.485,2.54 5.465,4.283 8.555,5.96 C 1.714,-1.264 1.052,0.382 0,0"
           style="fill:#ffffff;fill-opacity:1;fill-rule:nonzero;stroke:none"
           id="path832" />
      </g>
      <g
         id="g834"
         transform="translate(341.0737,94.2778)"
         clip-path="url(#clipPath2860)">
        <path
           d="m 0,0 c -0.568,-1.473 -1.035,-3.268 -0.7,-4.839 0.128,-0.602 0.916,-0.601 1.214,-0.159 0.888,1.316 1.099,3.221 1.122,4.777 C 1.651,0.776 0.322,0.835 0,0"
           style="fill:#ffffff;fill-opacity:1;fill-rule:nonzero;stroke:none"
           id="path836" />
      </g>
      <g
         id="g838"
         transform="translate(352.9074,119.4101)"
         clip-path="url(#clipPath2854)">
        <path
           d="m 0,0 c -3.004,-0.621 -5.721,-2.394 -7.732,-4.701 -0.376,-0.431 0.19,-0.99 0.623,-0.623 2.273,1.932 4.74,3.288 7.455,4.504 C 0.834,-0.601 0.47,0.097 0,0"
           style="fill:#ffffff;fill-opacity:1;fill-rule:nonzero;stroke:none"
           id="path840" />
      </g>
      <g
         id="g842"
         transform="translate(358.4961,121.7586)"
         clip-path="url(#clipPath2848)">
        <path
           d="m 0,0 c -0.858,0.074 -1.617,-0.046 -2.457,-0.224 -1.081,-0.23 -0.622,-1.882 0.455,-1.653 0.834,0.177 1.546,0.388 2.293,0.802 C 0.828,-0.776 0.539,-0.047 0,0"
           style="fill:#ffffff;fill-opacity:1;fill-rule:nonzero;stroke:none"
           id="path844" />
      </g>
      <g
         id="g846"
         transform="translate(289.2922,133.5738)"
         clip-path="url(#clipPath2842)">
        <path
           d="m 0,0 c -2.946,0.196 -5.972,-0.05 -8.883,-0.545 -0.769,-0.13 -0.522,-1.244 0.175,-1.29 2.955,-0.193 5.983,-0.096 8.902,0.403 C 1.048,-1.286 0.773,-0.052 0,0"
           style="fill:#ffffff;fill-opacity:1;fill-rule:nonzero;stroke:none"
           id="path848" />
      </g>
      <g
         id="g850"
         transform="translate(297.324,133.8781)"
         clip-path="url(#clipPath2836)">
        <path
           d="m 0,0 c -1.368,-0.06 -2.747,-0.034 -4.117,-0.05 -0.67,-0.008 -0.715,-0.879 -0.149,-1.102 1.476,-0.582 2.959,-0.501 4.409,0.098 C 0.661,-0.84 0.656,0.029 0,0"
           style="fill:#ffffff;fill-opacity:1;fill-rule:nonzero;stroke:none"
           id="path852" />
      </g>
      <g
         id="g854"
         transform="translate(309.9529,145.1934)"
         clip-path="url(#clipPath2830)">
        <path
           d="M 0,0 C 0.079,0 4.358,-0.01 8.41,-0.441 8.265,0.426 8.124,1.175 8.003,1.647 7.728,2.129 4.699,3.062 0.603,3.062 -2.986,3.062 -4.201,2.313 -4.238,2.039 -4.319,1.424 -4.411,0.658 -4.504,-0.147 -3.261,-0.055 -1.78,0 0,0"
           style="fill:#a79f9b;fill-opacity:1;fill-rule:nonzero;stroke:none"
           id="path856" />
      </g>
      <g
         id="g858"
         transform="translate(445.9518,119.8975)"
         clip-path="url(#clipPath2824)">
        <path
           d="m 0,0 c -0.435,1.355 -0.868,1.665 -0.986,1.666 -1.013,0.014 -2.406,0.005 -3.757,-0.011 0.691,-1.298 1.265,-3.964 1.715,-9.154 0.104,-1.206 0.196,-2.529 0.278,-3.929 1.19,0.339 2.253,0.663 2.85,0.895 C 0.915,-9.931 1.181,-3.688 0,0"
           style="fill:#a79f9b;fill-opacity:1;fill-rule:nonzero;stroke:none"
           id="path860" />
      </g>
      <g
         id="g862"
         transform="translate(442.9235,112.3983)"
         clip-path="url(#clipPath2818)">
        <path
           d="M 0,0 C -0.45,5.19 -1.023,7.857 -1.714,9.154 -0.364,9.17 1.029,9.179 2.042,9.165 2.16,9.164 2.594,8.855 3.028,7.499 4.21,3.811 3.943,-2.432 3.128,-3.033 2.531,-3.266 1.469,-3.59 0.278,-3.928 0.196,-2.529 0.104,-1.206 0,0 m -37.388,-23.128 c 1.179,-17.916 -12.537,-36.021 -29.953,-39.537 -2.151,-0.435 -4.381,-0.655 -6.628,-0.655 -16.073,0 -31.379,10.743 -36.394,25.543 -3.865,11.412 -1.172,25.68 6.862,36.349 6.503,8.64 16.717,13.927 27.324,14.141 0.22,0.005 0.441,0.007 0.663,0.007 19.05,0 36.866,-16.753 38.126,-35.848 m 10.866,54.385 c 7.696,0 13.502,-1.037 14.087,-1.698 0.404,-0.944 0.932,-2.904 1.405,-4.844 -2.113,0.002 -12.067,0.023 -25.933,0.053 0.318,1.783 0.701,3.846 1.004,5.222 0.297,0.49 3.12,1.267 9.437,1.267 m -32.5,17.818 c -0.12,0.413 -0.4,0.727 -0.791,0.883 -0.316,0.127 -0.74,0.266 -1.211,0.422 -1.179,0.385 -3.37,1.104 -3.676,1.837 -0.026,0.062 -0.046,0.14 0.033,0.298 0.139,0.278 1.078,0.721 3.005,0.721 2.859,0 5.773,-0.941 6.497,-2.099 0.581,-0.93 0.486,-2.436 0.168,-3.892 -1.044,0.084 -2.479,0.165 -4.177,0.239 0.19,0.614 0.273,1.173 0.152,1.591 M -77.14,46.309 c 10.755,0 22.239,-0.405 23.431,-0.744 1.261,-0.7 5.881,-10.549 10.154,-20.783 -18.862,0.041 -42.967,0.095 -64.452,0.143 4.573,8.232 10.537,18.767 11.746,20.18 1.14,0.904 9.86,1.204 19.121,1.204 m -16.073,4.828 c 0.724,1.158 3.638,2.099 6.497,2.099 1.928,0 2.867,-0.443 3.006,-0.722 0.079,-0.157 0.059,-0.235 0.033,-0.297 -0.307,-0.733 -2.498,-1.452 -3.676,-1.837 -0.472,-0.156 -0.895,-0.295 -1.212,-0.422 -0.39,-0.156 -0.67,-0.47 -0.79,-0.883 -0.114,-0.391 -0.045,-0.908 0.118,-1.476 -1.732,-0.092 -3.089,-0.205 -4.15,-0.327 -0.313,1.448 -0.403,2.94 0.174,3.865 m -39.155,-15.28 c 4.097,0 7.125,-0.933 7.4,-1.415 0.121,-0.472 0.262,-1.221 0.408,-2.088 -4.053,0.431 -8.332,0.441 -8.411,0.441 -1.78,0 -3.261,-0.055 -4.503,-0.147 0.092,0.806 0.184,1.571 0.266,2.186 0.037,0.274 1.251,1.023 4.84,1.023 m -0.603,-4.6 c 7.697,0 13.502,-1.037 14.088,-1.698 0.388,-0.906 0.89,-2.75 1.348,-4.613 -9.766,0.022 -18.653,0.042 -25.833,0.058 0.309,1.728 0.671,3.67 0.961,4.986 0.296,0.49 3.119,1.267 9.436,1.267 m -28.247,-7.75 c 1.453,-0.003 145.277,-0.329 150.475,-0.329 4.599,0 7.445,-4.035 7.445,-7.773 v -5.146 c -3.742,-0.003 -34.677,-0.145 -55.297,-0.241 -5.248,2.689 -11.025,4.24 -16.919,4.24 -0.231,0 -0.464,-0.002 -0.695,-0.007 -5.702,-0.116 -11.29,-1.644 -16.301,-4.32 h -76.479 v 7.773 c 0,3.687 2.833,5.803 7.771,5.803 m 4.21,6.765 c 4.095,0 7.124,-0.933 7.399,-1.415 0.198,-0.771 0.448,-2.269 0.684,-3.84 -7.436,0.017 -12.037,0.027 -12.291,0.028 -0.386,0 -0.761,-0.016 -1.128,-0.041 0.162,1.497 0.345,3.113 0.495,4.245 0.037,0.274 1.251,1.023 4.841,1.023 M -176.747,7.496 c 0.435,1.359 0.869,1.668 0.987,1.669 0.319,0.004 0.673,0.005 1.053,0.005 1.017,0 2.212,-0.011 3.331,-0.026 -0.483,-1.245 -0.924,-4.463 -1.33,-12.803 -0.01,-0.2 -0.018,-0.419 -0.028,-0.622 -1.661,0.454 -3.295,0.928 -4.087,1.236 -0.84,0.612 -1.106,6.853 0.074,10.541 m 6.703,0.897 h 74.919 c -3.659,-2.354 -6.935,-5.349 -9.605,-8.896 -8.331,-11.064 -11.113,-25.888 -7.088,-37.766 3.39,-10.008 11.297,-18.23 21.003,-22.765 h -79.344 c -2.14,4.119 -2.028,63.984 0.115,69.427 m 1.055,-73.482 v 2.517 h 81.938 c 4.177,-1.474 8.6,-2.285 13.082,-2.285 2.349,0 4.682,0.23 6.932,0.684 1.863,0.376 3.683,0.921 5.452,1.601 h 58.287 v -3.502 c 0,-6.593 -2.657,-7.117 -6.13,-7.117 h -151.459 c -6.697,0 -8.102,4.406 -8.102,8.102 m 165.848,4.055 h -55.001 c 13.659,6.964 23.306,22.549 22.288,38.007 -0.852,12.911 -8.984,24.786 -20.013,31.52 20.559,0.096 49.121,0.227 52.602,0.229 0.13,-0.129 0.645,-0.814 1.151,-3.917 2.596,-15.948 0.863,-62.062 -1.027,-65.839 M 2.06,10.703 c -1.03,0.013 -2.449,0.004 -3.82,-0.013 v 4.715 c 0,4.109 -2.898,8.506 -7.661,9.204 -0.517,2.149 -1.126,4.446 -1.6,5.555 -1.115,2.601 -15.357,2.631 -15.501,2.631 -10.385,0 -10.792,-1.836 -10.926,-2.44 -0.33,-1.484 -0.744,-3.722 -1.076,-5.584 -1.099,0.002 -2.217,0.005 -3.36,0.008 -3.434,8.289 -9.255,21.646 -11.358,22.248 -0.048,0.013 -0.134,0.027 -0.207,0.041 0.347,1.689 0.42,3.552 -0.412,4.884 -1.158,1.852 -4.801,2.821 -7.801,2.821 -1.342,0 -3.698,-0.204 -4.381,-1.57 -0.262,-0.525 -0.288,-1.07 -0.077,-1.577 0.578,-1.384 2.817,-2.118 4.616,-2.708 0.389,-0.127 0.74,-0.242 1.019,-0.348 0.018,-0.206 -0.088,-0.57 -0.272,-1.022 -4.126,0.156 -9.401,0.268 -14.5,0.289 -5.342,0.029 -9.366,-0.04 -12.416,-0.165 -0.153,0.395 -0.236,0.71 -0.22,0.898 0.279,0.106 0.631,0.221 1.019,0.348 1.799,0.59 4.039,1.324 4.616,2.708 0.212,0.507 0.186,1.052 -0.077,1.576 -0.682,1.367 -3.038,1.571 -4.381,1.571 -3,0 -6.643,-0.969 -7.8,-2.821 -0.835,-1.335 -0.759,-3.205 -0.41,-4.897 -1.979,-0.342 -2.296,-0.712 -2.478,-0.924 -1.468,-1.713 -8.507,-14.263 -12.358,-21.202 -2.093,0.004 -4.158,0.009 -6.189,0.014 -0.498,2.049 -1.068,4.17 -1.518,5.221 -0.426,0.993 -2.765,1.61 -5.501,1.995 -0.178,1.099 -0.356,2.072 -0.508,2.665 -0.652,2.541 -8.808,2.571 -8.89,2.571 -2.76,0 -6.106,-0.409 -6.364,-2.358 -0.094,-0.708 -0.201,-1.603 -0.307,-2.538 -4.503,-0.545 -4.757,-1.691 -4.858,-2.144 -0.316,-1.422 -0.709,-3.534 -1.033,-5.347 -0.84,0.002 -1.653,0.004 -2.439,0.005 -0.253,1.696 -0.529,3.361 -0.75,4.226 -0.652,2.541 -8.807,2.571 -8.889,2.571 -2.761,0 -6.106,-0.409 -6.365,-2.359 -0.165,-1.237 -0.367,-3.043 -0.539,-4.646 -4.139,-0.76 -6.615,-3.333 -6.615,-7.101 V 10.67 c -1.736,0.026 -3.849,0.049 -5.251,0.033 -1.364,-0.015 -2.34,-1.586 -2.902,-4.668 -0.454,-2.494 -0.996,-9.615 1.276,-10.5 0.915,-0.357 2.782,-0.895 4.6,-1.39 -0.312,-7.319 -0.49,-16.291 -0.49,-25.048 0,-30.53 1.74,-31.628 2.767,-31.667 v -2.519 c 0,-6.125 3.514,-9.639 9.64,-9.639 H -9.428 c 3.71,0 7.668,0.668 7.668,8.654 v 4.368 c 0.564,1.297 1.138,4.54 1.676,12.662 0.513,7.761 0.808,17.681 0.808,27.218 0,6.159 -0.125,11.679 -0.361,16.325 1.366,0.384 2.625,0.763 3.324,1.036 2.078,0.81 1.85,7.347 1.274,10.503 -0.56,3.08 -1.537,4.65 -2.901,4.665"
           style="fill:#473833;fill-opacity:1;fill-rule:nonzero;stroke:none"
           id="path864" />
      </g>
      <g
         id="g866"
         transform="translate(270.1895,108.1174)"
         clip-path="url(#clipPath2812)">
        <path
           d="m 0,0 c 0.01,0.203 0.018,0.422 0.028,0.622 0.406,8.34 0.847,11.558 1.33,12.803 -1.119,0.014 -2.314,0.026 -3.331,0.026 -0.38,0 -0.734,-0.001 -1.053,-0.005 -0.118,-10e-4 -0.552,-0.31 -0.987,-1.669 C -5.193,8.089 -4.927,1.848 -4.087,1.236 -3.295,0.928 -1.661,0.454 0,0"
           style="fill:#a79f9b;fill-opacity:1;fill-rule:nonzero;stroke:none"
           id="path868" />
      </g>
      <g
         id="g870"
         transform="translate(431.8936,137.1137)"
         clip-path="url(#clipPath2806)">
        <path
           d="m 0,0 c -0.474,1.94 -1.001,3.9 -1.405,4.843 -0.586,0.662 -6.391,1.699 -14.087,1.699 -6.317,0 -9.14,-0.778 -9.437,-1.267 C -25.232,3.899 -25.615,1.836 -25.933,0.052 -12.067,0.023 -2.113,0.002 0,0"
           style="fill:#265255;fill-opacity:1;fill-rule:nonzero;stroke:none"
           id="path872" />
      </g>
      <g
         id="g874"
         transform="translate(325.3886,137.3445)"
         clip-path="url(#clipPath2800)">
        <path
           d="m 0,0 c -0.458,1.863 -0.96,3.707 -1.348,4.612 -0.586,0.662 -6.391,1.699 -14.088,1.699 -6.317,0 -9.14,-0.778 -9.436,-1.267 -0.29,-1.316 -0.653,-3.258 -0.961,-4.986 C -18.653,0.042 -9.766,0.022 0,0"
           style="fill:#265255;fill-opacity:1;fill-rule:nonzero;stroke:none"
           id="path876" />
      </g>
      <g
         id="g878"
         transform="translate(281.7078,137.4429)"
         clip-path="url(#clipPath2794)">
        <path
           d="m 0,0 c 0.254,-0.001 4.855,-0.011 12.29,-0.028 -0.235,1.571 -0.486,3.07 -0.683,3.84 -0.276,0.483 -3.304,1.416 -7.399,1.416 -3.59,0 -4.805,-0.75 -4.842,-1.023 C -0.784,3.072 -0.966,1.457 -1.128,-0.04 -0.762,-0.015 -0.387,0 0,0"
           style="fill:#265255;fill-opacity:1;fill-rule:nonzero;stroke:none"
           id="path880" />
      </g>
      <g
         id="g882"
         transform="translate(353.568,161.4733)"
         clip-path="url(#clipPath2788)">
        <path
           d="M 0,0 C 0.12,0.413 0.4,0.727 0.791,0.883 1.107,1.01 1.531,1.149 2.002,1.305 3.18,1.69 5.372,2.409 5.678,3.143 5.704,3.204 5.724,3.282 5.645,3.439 5.506,3.718 4.567,4.161 2.64,4.161 -0.219,4.161 -3.133,3.22 -3.857,2.062 -4.435,1.137 -4.344,-0.355 -4.031,-1.803 -2.97,-1.681 -1.613,-1.568 0.118,-1.476 -0.045,-0.908 -0.114,-0.391 0,0"
           style="fill:#a79f9b;fill-opacity:1;fill-rule:nonzero;stroke:none"
           id="path884" />
      </g>
      <g
         id="g886"
         transform="translate(387.9266,159.6429)"
         clip-path="url(#clipPath2782)">
        <path
           d="M 0,0 C 0.318,1.456 0.413,2.962 -0.168,3.893 -0.892,5.05 -3.806,5.991 -6.665,5.991 -8.592,5.991 -9.531,5.549 -9.67,5.27 -9.749,5.112 -9.729,5.034 -9.703,4.973 -9.397,4.239 -7.206,3.52 -6.027,3.135 -5.556,2.98 -5.132,2.841 -4.816,2.713 -4.426,2.557 -4.145,2.244 -4.025,1.83 -3.904,1.413 -3.987,0.853 -4.177,0.24 -2.479,0.165 -1.044,0.084 0,0"
           style="fill:#a79f9b;fill-opacity:1;fill-rule:nonzero;stroke:none"
           id="path888" />
      </g>
      <g
         id="g890"
         transform="translate(346.6624,157.503)"
         clip-path="url(#clipPath2776)">
        <path
           d="m 0,0 c -1.209,-1.413 -7.172,-11.948 -11.746,-20.18 21.485,-0.048 45.59,-0.102 64.452,-0.143 C 48.433,-10.089 43.813,-0.24 42.552,0.46 41.36,0.799 29.876,1.204 19.121,1.204 9.86,1.204 1.14,0.904 0,0"
           style="fill:#22646f;fill-opacity:1;fill-rule:nonzero;stroke:none"
           id="path892" />
      </g>
      <g
         id="g894"
         transform="translate(273.9343,130.1028)"
         clip-path="url(#clipPath2770)">
        <path
           d="m 0,0 v -7.774 h 76.479 c 5.011,2.677 10.599,4.205 16.301,4.32 0.231,0.005 0.464,0.007 0.695,0.007 5.894,0 11.671,-1.551 16.919,-4.24 20.62,0.097 51.555,0.239 55.297,0.242 V -2.3 c 0,3.739 -2.846,7.773 -7.445,7.773 C 153.049,5.473 9.224,5.799 7.771,5.802 2.833,5.802 0,3.687 0,0"
           style="fill:#ebe5d9;fill-opacity:1;fill-rule:nonzero;stroke:none"
           id="path896" />
      </g>
      <g
         id="g898"
         transform="translate(439.6258,46.3245)"
         clip-path="url(#clipPath2764)">
        <path
           d="m 0,0 v 3.502 h -58.287 c -1.77,-0.68 -3.589,-1.225 -5.452,-1.601 -2.251,-0.454 -4.583,-0.685 -6.932,-0.685 -4.482,0 -8.905,0.811 -13.082,2.286 h -81.938 V 0.985 c 0,-3.696 1.405,-8.102 8.101,-8.102 H -6.131 C -2.657,-7.117 0,-6.593 0,0"
           style="fill:#ebe5d9;fill-opacity:1;fill-rule:nonzero;stroke:none"
           id="path900" />
      </g>
      <g
         id="g902"
         transform="translate(437.8679,56.5227)"
         clip-path="url(#clipPath2758)">
        <path
           d="m 0,0 c -0.251,-1.115 -0.688,-1.771 -1.337,-2.002 -1.564,-0.559 -11.236,-0.587 -13.159,-0.587 -1.92,0 -11.589,0.027 -13.346,0.577 -0.872,0.272 -1.513,1.162 -1.905,2.644 -0.822,3.107 -0.432,8.341 1.283,10.18 2.338,2.506 15.873,2.578 17.409,2.578 3.792,0 8.505,-0.193 9.424,-1.113 C -0.118,10.764 0.708,3.147 0,0 M 2.941,60.681 C 2.436,63.783 1.92,64.469 1.791,64.597 -1.691,64.595 -30.253,64.465 -50.812,64.369 -39.783,57.635 -31.65,45.76 -30.799,32.848 -29.781,17.39 -39.427,1.805 -53.087,-5.159 H 1.915 c 1.889,3.777 3.622,49.891 1.026,65.84"
           style="fill:#22646f;fill-opacity:1;fill-rule:nonzero;stroke:none"
           id="path904" />
      </g>
      <g
         id="g906"
         transform="translate(311.3935,114.924)"
         clip-path="url(#clipPath2752)">
        <path
           d="m 0,0 c 1.97,2.041 5.08,2.398 7.659,0.791 2.866,-1.784 3.968,-5.793 2.405,-8.753 -1.084,-2.053 -3.257,-3.379 -5.533,-3.379 -1.149,0 -2.265,0.336 -3.228,0.972 -1.861,1.229 -3.061,3.299 -3.135,5.404 C -1.898,-3.054 -1.247,-1.291 0,0 m 14.205,-40.017 v -9.051 c 2.047,-1.631 2.78,-4.694 1.556,-7.013 -0.915,-1.732 -2.748,-2.852 -4.67,-2.852 -0.972,0 -1.915,0.284 -2.729,0.822 -1.565,1.036 -2.577,2.78 -2.639,4.552 -0.055,1.609 0.494,3.093 1.545,4.182 0.147,0.152 0.31,0.279 0.471,0.408 v 9.692 c 0,1.585 1.117,2.651 2.78,2.651 1.773,0 3.686,-1.297 3.686,-3.391 M -38.629,-63.56 h 79.344 c -9.706,4.535 -17.613,12.757 -21.003,22.765 -4.025,11.878 -1.243,26.702 7.088,37.767 2.67,3.547 5.946,6.541 9.605,8.895 h -74.919 c -2.143,-5.443 -2.255,-65.307 -0.115,-69.427"
           style="fill:#22646f;fill-opacity:1;fill-rule:nonzero;stroke:none"
           id="path908" />
      </g>
      <g
         id="g910"
         transform="translate(399.3815,88.9214)"
         clip-path="url(#clipPath2746)">
        <path
           d="m 0,0 c 1.004,-15.212 -10.217,-30.018 -25.015,-33.004 -1.807,-0.365 -3.679,-0.55 -5.565,-0.55 -13.404,0 -26.171,8.97 -30.358,21.329 -3.229,9.529 -0.998,21.419 5.68,30.29 5.446,7.233 14.003,11.658 22.888,11.838 0.186,0.004 0.373,0.005 0.558,0.005 C -15.914,29.908 -1.049,15.933 0,0 M -59.959,22.049 C -67.993,11.38 -70.686,-2.888 -66.821,-14.3 c 5.015,-14.8 20.321,-25.543 36.394,-25.543 2.247,0 4.477,0.22 6.628,0.655 17.416,3.516 31.132,21.621 29.953,39.536 -1.26,19.096 -19.076,35.849 -38.126,35.849 -0.222,0 -0.443,-0.002 -0.663,-0.007 -10.607,-0.214 -20.821,-5.501 -27.324,-14.141"
           style="fill:#d6cfc9;fill-opacity:1;fill-rule:nonzero;stroke:none"
           id="path912" />
      </g>
      <g
         id="g914"
         transform="translate(371.6589,69.6271)"
         clip-path="url(#clipPath2740)">
        <path
           d="m 0,0 c -1.016,-0.205 -2.067,-0.308 -3.126,-0.308 -7.51,0 -14.663,5.026 -17.008,11.953 -1.81,5.341 -0.565,11.999 3.171,16.962 3.057,4.058 7.858,6.541 12.846,6.642 l 0.313,0.003 c 8.908,0 17.237,-7.83 17.825,-16.756 C 14.583,9.971 8.293,1.674 0,0 m -4.089,47.665 c -0.176,0 -0.351,-10e-4 -0.526,-0.005 -8.419,-0.171 -16.527,-4.367 -21.691,-11.226 -6.382,-8.477 -8.523,-19.81 -5.454,-28.873 3.982,-11.753 16.137,-20.283 28.903,-20.283 1.784,0 3.554,0.175 5.261,0.52 C 16.235,-9.411 27.127,4.966 26.189,19.193 25.19,34.361 11.04,47.665 -4.089,47.665"
           style="fill:#5da5c2;fill-opacity:1;fill-rule:nonzero;stroke:none"
           id="path916" />
      </g>
      <g
         id="g918"
         transform="translate(374.0626,57.4247)"
         clip-path="url(#clipPath2734)">
        <path
           d="m 0,0 c -1.707,-0.344 -3.477,-0.52 -5.261,-0.52 -12.766,0 -24.92,8.531 -28.903,20.284 -3.069,9.063 -0.928,20.395 5.454,28.873 5.164,6.858 13.272,11.055 21.691,11.225 0.175,0.004 0.351,0.005 0.526,0.005 15.13,0 29.279,-13.304 30.278,-28.471 C 24.723,17.169 13.831,2.791 0,0 m -7.051,61.4 c -8.886,-0.181 -17.442,-4.605 -22.888,-11.838 -6.678,-8.871 -8.909,-20.761 -5.68,-30.291 4.186,-12.358 16.953,-21.328 30.358,-21.328 1.886,0 3.758,0.185 5.565,0.549 14.798,2.987 26.019,17.793 25.015,33.005 -1.049,15.932 -15.915,29.908 -31.812,29.908 -0.185,0 -0.372,-10e-4 -0.558,-0.005"
           style="fill:#473833;fill-opacity:1;fill-rule:nonzero;stroke:none"
           id="path920" />
      </g>
      <g
         id="g922"
         transform="translate(384.1457,88.0214)"
         clip-path="url(#clipPath2728)">
        <path
           d="m 0,0 c -0.539,8.161 -8.15,15.32 -16.291,15.32 l -0.281,-0.003 c -4.52,-0.091 -8.874,-2.346 -11.648,-6.03 -3.44,-4.568 -4.596,-10.67 -2.945,-15.544 2.107,-6.219 8.792,-10.908 15.552,-10.908 0.957,0 1.906,0.093 2.822,0.278 C -5.353,-15.386 0.505,-7.652 0,0"
           style="fill:#2b595c;fill-opacity:1;fill-rule:nonzero;stroke:none"
           id="path924" />
      </g>
      <g
         id="g926"
         transform="translate(368.5325,70.8565)"
         clip-path="url(#clipPath2722)">
        <path
           d="m 0,0 c -6.759,0 -13.445,4.689 -15.552,10.908 -1.651,4.874 -0.495,10.976 2.945,15.544 2.774,3.684 7.128,5.939 11.648,6.03 l 0.281,0.003 c 8.141,0 15.753,-7.159 16.291,-15.32 C 16.118,9.512 10.26,1.779 2.822,0.278 1.906,0.093 0.957,0 0,0 M -0.678,34.022 -0.991,34.02 C -5.979,33.918 -10.78,31.436 -13.836,27.377 -17.572,22.415 -18.818,15.756 -17.008,10.415 -14.662,3.489 -7.509,-1.538 0,-1.538 c 1.059,0 2.11,0.103 3.126,0.309 C 11.42,0.445 17.71,8.742 17.147,17.267 16.559,26.193 8.23,34.022 -0.678,34.022"
           style="fill:#473833;fill-opacity:1;fill-rule:nonzero;stroke:none"
           id="path928" />
      </g>
      <g
         id="g930"
         transform="translate(321.9121,76.76)"
         clip-path="url(#clipPath2716)">
        <path
           d="m 0,0 c -0.464,0 -1.242,-0.145 -1.242,-1.113 v -8.848 c 1.072,0.356 2.256,0.34 3.39,-0.074 v 8.182 C 2.148,-0.589 0.867,0 0,0"
           style="fill:#d6cfc9;fill-opacity:1;fill-rule:nonzero;stroke:none"
           id="path932" />
      </g>
      <g
         id="g934"
         transform="translate(324.0605,66.7254)"
         clip-path="url(#clipPath2710)">
        <path
           d="m 0,0 c -1.134,0.414 -2.318,0.43 -3.391,0.074 v 8.847 c 0,0.968 0.779,1.114 1.243,1.114 C -1.281,10.035 0,9.446 0,8.182 Z m -1.576,-9.197 c -0.669,0 -1.32,0.197 -1.881,0.568 -1.158,0.766 -1.905,2.038 -1.949,3.323 -0.041,1.187 0.354,2.274 1.113,3.059 0.666,0.69 1.543,1.069 2.471,1.069 0.703,0 1.403,-0.213 2.077,-0.633 1.756,-1.094 2.434,-3.545 1.48,-5.352 -0.652,-1.236 -1.951,-2.034 -3.311,-2.034 M -4.928,8.921 V -0.77 c -0.161,-0.13 -0.324,-0.257 -0.471,-0.409 -1.051,-1.088 -1.6,-2.573 -1.545,-4.181 0.062,-1.772 1.074,-3.516 2.639,-4.552 0.814,-0.538 1.757,-0.822 2.729,-0.822 1.922,0 3.755,1.12 4.67,2.852 1.224,2.319 0.491,5.382 -1.556,7.012 v 9.052 c 0,2.094 -1.913,3.39 -3.686,3.39 -1.663,0 -2.78,-1.065 -2.78,-2.651"
           style="fill:#473833;fill-opacity:1;fill-rule:nonzero;stroke:none"
           id="path936" />
      </g>
      <g
         id="g938"
         transform="translate(324.3158,64.9139)"
         clip-path="url(#clipPath2704)">
        <path
           d="m 0,0 c -0.675,0.42 -1.375,0.634 -2.077,0.634 -0.928,0 -1.805,-0.38 -2.471,-1.069 -0.759,-0.785 -1.154,-1.873 -1.113,-3.06 0.044,-1.284 0.791,-2.557 1.949,-3.323 0.56,-0.371 1.211,-0.567 1.881,-0.567 1.36,0 2.659,0.798 3.311,2.033 C 2.434,-3.545 1.756,-1.093 0,0"
           style="fill:#a79f9b;fill-opacity:1;fill-rule:nonzero;stroke:none"
           id="path940" />
      </g>
      <g
         id="g942"
         transform="translate(311.0992,110.0126)"
         clip-path="url(#clipPath2698)">
        <path
           d="m 0,0 c 0.056,-1.616 0.992,-3.215 2.444,-4.175 0.711,-0.469 1.534,-0.717 2.381,-0.717 1.714,0 3.352,1.005 4.174,2.561 1.2,2.272 0.348,5.354 -1.859,6.728 C 6.291,4.926 5.411,5.193 4.524,5.193 3.351,5.193 2.242,4.713 1.401,3.843 0.445,2.854 -0.052,1.49 0,0"
           style="fill:#ff6131;fill-opacity:1;fill-rule:nonzero;stroke:none"
           id="path944" />
      </g>
      <g
         id="g946"
         transform="translate(318.2391,114.4095)"
         clip-path="url(#clipPath2692)">
        <path
           d="m 0,0 c 2.207,-1.373 3.059,-4.456 1.859,-6.728 -0.822,-1.556 -2.46,-2.561 -4.174,-2.561 -0.846,0 -1.67,0.248 -2.381,0.717 -1.452,0.96 -2.388,2.559 -2.444,4.175 -0.052,1.49 0.446,2.854 1.401,3.843 0.841,0.87 1.95,1.35 3.123,1.35 C -1.729,0.796 -0.849,0.529 0,0 m -5.543,-9.855 c 0.963,-0.636 2.079,-0.972 3.228,-0.972 2.277,0 4.449,1.326 5.534,3.38 1.562,2.96 0.46,6.968 -2.406,8.752 -2.579,1.607 -5.688,1.251 -7.659,-0.79 -1.247,-1.292 -1.898,-3.055 -1.832,-4.966 0.075,-2.104 1.275,-4.175 3.135,-5.404"
           style="fill:#473833;fill-opacity:1;fill-rule:nonzero;stroke:none"
           id="path948" />
      </g>
      <g
         id="g950"
         transform="translate(426.8127,68.3748)"
         clip-path="url(#clipPath2686)">
        <path
           d="m 0,0 c -8.038,0 -15.191,-0.918 -16.285,-2.089 -1.176,-1.262 -1.667,-5.916 -0.92,-8.738 0.275,-1.042 0.645,-1.497 0.877,-1.57 0.94,-0.293 6.36,-0.506 12.887,-0.506 7.307,0 11.966,0.255 12.642,0.496 H 9.2 c -0.005,0 0.348,0.288 0.506,1.869 0.363,3.637 -0.624,9.13 -1.369,9.875 C 7.968,-0.423 5.342,0 0,0"
           style="fill:#948885;fill-opacity:1;fill-rule:nonzero;stroke:none"
           id="path952" />
      </g>
      <g
         id="g954"
         transform="translate(436.5184,57.8371)"
         clip-path="url(#clipPath2680)">
        <path
           d="m 0,0 c -0.158,-1.582 -0.511,-1.869 -0.505,-1.869 h 0.001 c -0.676,-0.241 -5.335,-0.497 -12.642,-0.497 -6.528,0 -11.948,0.214 -12.888,0.507 -0.232,0.073 -0.601,0.528 -0.877,1.57 -0.746,2.822 -0.256,7.476 0.92,8.737 1.095,1.172 8.248,2.09 16.285,2.09 5.342,0 7.968,-0.424 8.338,-0.663 C -0.624,9.13 0.363,3.637 0,0 m -9.706,12.075 c -1.535,0 -15.07,-0.072 -17.409,-2.577 -1.715,-1.839 -2.104,-7.073 -1.282,-10.181 0.391,-1.481 1.033,-2.371 1.905,-2.644 1.757,-0.549 11.425,-0.576 13.346,-0.576 1.923,0 11.594,0.028 13.158,0.586 0.65,0.232 1.086,0.887 1.338,2.003 0.707,3.147 -0.119,10.764 -1.631,12.276 -0.919,0.92 -5.632,1.113 -9.425,1.113"
           style="fill:#473833;fill-opacity:1;fill-rule:nonzero;stroke:none"
           id="path956" />
      </g>
      <g
         id="g958"
         transform="translate(272.764,51.364)"
         clip-path="url(#clipPath2674)">
        <path
           d="m 0,0 h 79.344 c -8.662,4.048 -15.882,11.037 -19.747,19.607 -2.254,0.078 -4.508,0.169 -6.763,0.286 v -5.401 c 2.047,-1.631 2.781,-4.693 1.557,-7.013 -0.915,-1.732 -2.748,-2.852 -4.67,-2.852 -0.972,0 -1.915,0.284 -2.729,0.822 -1.566,1.036 -2.577,2.78 -2.639,4.552 -0.055,1.609 0.493,3.093 1.544,4.182 0.147,0.152 0.31,0.279 0.471,0.409 v 5.682 C 38.813,20.763 31.263,21.4 23.737,22.042 15.31,22.761 6.849,23.488 -1.502,24.784 -1.355,12.292 -0.859,1.654 0,0"
           style="fill:#265255;fill-opacity:1;fill-rule:nonzero;stroke:none"
           id="path960" />
      </g>
      <g
         id="g962"
         transform="translate(426.8127,69.9124)"
         clip-path="url(#clipPath2668)">
        <path
           d="m 0,0 c 3.792,0 8.505,-0.193 9.424,-1.113 1.513,-1.513 2.339,-9.129 1.631,-12.277 -0.251,-1.115 -0.688,-1.771 -1.337,-2.002 -1.564,-0.559 -11.236,-0.587 -13.159,-0.587 -1.92,0 -11.589,0.028 -13.345,0.577 -0.872,0.272 -1.514,1.162 -1.906,2.644 -0.821,3.107 -0.432,8.341 1.283,10.18 C -15.071,-0.072 -1.536,0 0,0 M -42.032,-18.548 H 12.97 c 1.329,2.656 2.58,26.256 2.303,45.573 C 3.824,20.895 -7.999,15.511 -20.178,11.265 -22.282,-1.26 -30.797,-12.82 -42.032,-18.548"
           style="fill:#265255;fill-opacity:1;fill-rule:nonzero;stroke:none"
           id="path964" />
      </g>
      <g
         id="g966"
         transform="translate(277.3489,117.4612)"
         clip-path="url(#clipPath2662)">
        <path
           d="m 0,0 c -0.001,1.177 -1.686,1.131 -1.794,0 -0.621,-6.511 -2.384,-14.297 -0.872,-20.727 0.199,-0.846 1.357,-0.741 1.606,0 C 1.045,-14.48 0.008,-6.528 0,0"
           style="fill:#2a7582;fill-opacity:1;fill-rule:nonzero;stroke:none"
           id="path968" />
      </g>
      <g
         id="g970"
         transform="translate(276.5856,88.531)"
         clip-path="url(#clipPath2656)">
        <path
           d="M 0,0 C 0,0.017 0.002,0.024 0.002,0.043 0.059,0.496 0.083,0.954 0.122,1.409 0.195,2.27 0.39,3.183 0.131,4.024 -0.087,4.728 -1.031,4.863 -1.421,4.226 -1.827,3.563 -1.876,2.796 -2.001,2.041 -2.128,1.278 -2.531,0.153 -2.322,-0.607 c 0.33,-1.2 1.868,-1.388 2.504,-0.355 C 0.411,-0.59 0.277,-0.218 0,0"
           style="fill:#2a7582;fill-opacity:1;fill-rule:nonzero;stroke:none"
           id="path972" />
      </g>
      <g
         id="g974"
         transform="translate(308.0048,142.3074)"
         clip-path="url(#clipPath2650)">
        <path
           d="m 0,0 c -1.003,0.155 -1.911,0.003 -2.904,-0.16 -0.966,-0.159 -2.036,-0.095 -2.865,-0.677 -0.27,-0.19 -0.264,-0.529 0,-0.72 0.786,-0.567 1.771,-0.497 2.702,-0.473 1.136,0.029 2.249,0.124 3.237,0.727 C 0.648,-1.011 0.645,-0.1 0,0"
           style="fill:#22646f;fill-opacity:1;fill-rule:nonzero;stroke:none"
           id="path976" />
      </g>
      <g
         id="g978"
         transform="translate(312.9504,142.0591)"
         clip-path="url(#clipPath2644)">
        <path
           d="m 0,0 c -0.261,0.006 -0.494,-0.066 -0.754,-0.003 -0.282,0.068 -0.574,0.096 -0.857,0.168 -0.716,0.181 -1.212,-0.687 -0.709,-1.219 0.425,-0.449 0.957,-0.641 1.566,-0.526 0.448,0.084 1.001,0.393 1.19,0.821 C 0.588,-0.414 0.413,-0.01 0,0"
           style="fill:#22646f;fill-opacity:1;fill-rule:nonzero;stroke:none"
           id="path980" />
      </g>
      <g
         id="g982"
         transform="translate(286.4171,141.5489)"
         clip-path="url(#clipPath2638)">
        <path
           d="m 0,0 c -1.245,-0.211 -2.637,-0.363 -3.732,-1.045 -0.467,-0.291 -0.286,-1.045 0.283,-1.045 1.295,10e-4 2.553,0.604 3.726,1.086 C 0.895,-0.75 0.67,0.113 0,0"
           style="fill:#22646f;fill-opacity:1;fill-rule:nonzero;stroke:none"
           id="path984" />
      </g>
      <g
         id="g986"
         transform="translate(423.9785,94.8643)"
         clip-path="url(#clipPath2632)">
        <path
           d="m 0,0 c -2.211,-0.42 -4.199,-1.458 -6.235,-2.389 -2.595,-1.185 -5.231,-2.306 -7.748,-3.651 -0.725,-0.387 -0.226,-1.597 0.561,-1.332 2.367,0.795 4.664,1.786 6.976,2.726 2.38,0.968 4.92,1.783 7.014,3.299 C 1.249,-0.854 0.842,0.16 0,0"
           style="fill:#265255;fill-opacity:1;fill-rule:nonzero;stroke:none"
           id="path988" />
      </g>
      <g
         id="g990"
         transform="translate(434.1994,99.9424)"
         clip-path="url(#clipPath2626)">
        <path
           d="m 0,0 c -0.839,0.082 -1.649,-0.413 -2.312,-0.873 -0.735,-0.509 -1.447,-1.053 -2.167,-1.583 -0.523,-0.385 -0.783,-1.027 -0.428,-1.633 0.309,-0.528 1.098,-0.8 1.633,-0.428 0.733,0.509 1.476,1.007 2.194,1.537 0.726,0.536 1.552,1.15 1.767,2.078 C 0.8,-0.419 0.469,-0.046 0,0"
           style="fill:#265255;fill-opacity:1;fill-rule:nonzero;stroke:none"
           id="path992" />
      </g>
      <g
         id="g994"
         transform="translate(298.8313,77.9822)"
         clip-path="url(#clipPath2620)">
        <path
           d="m 0,0 c -6.329,0.987 -12.8,0.977 -19.191,0.866 -1.047,-0.018 -1.039,-1.57 0,-1.618 6.314,-0.29 12.636,-0.932 18.957,-0.978 C 0.735,-1.738 1.001,-0.156 0,0"
           style="fill:#265255;fill-opacity:1;fill-rule:nonzero;stroke:none"
           id="path996" />
      </g>
      <g
         id="g998"
         transform="translate(308.7975,77.6814)"
         clip-path="url(#clipPath2614)">
        <path
           d="m 0,0 c -1.538,0.327 -2.989,0.315 -4.555,0.291 -1.301,-0.02 -1.301,-1.999 0,-2.018 C -2.989,-1.751 -1.538,-1.763 0,-1.436 0.713,-1.285 0.713,-0.152 0,0"
           style="fill:#265255;fill-opacity:1;fill-rule:nonzero;stroke:none"
           id="path1000" />
      </g>
      <g
         id="g1002"
         transform="translate(349.0448,155.6034)"
         clip-path="url(#clipPath2608)">
        <path
           d="m 0,0 c -2.073,-2.036 -4.68,-4.251 -5.655,-7.054 -0.16,-0.462 0.439,-0.941 0.847,-0.651 2.368,1.678 3.976,4.45 5.907,6.606 C 1.763,-0.356 0.72,0.707 0,0"
           style="fill:#2a7582;fill-opacity:1;fill-rule:nonzero;stroke:none"
           id="path1004" />
      </g>
      <g
         id="g1006"
         transform="translate(342.1399,146.0134)"
         clip-path="url(#clipPath2602)">
        <path
           d="m 0,0 c -0.428,-0.735 -1.14,-1.402 -1.27,-2.264 -0.057,-0.38 0.234,-0.812 0.67,-0.67 0.992,0.322 1.436,1.326 1.817,2.223 C 1.562,0.1 0.47,0.808 0,0"
           style="fill:#2a7582;fill-opacity:1;fill-rule:nonzero;stroke:none"
           id="path1008" />
      </g>
      <g
         id="g1010"
         transform="translate(361.8781,100.2701)"
         clip-path="url(#clipPath2596)">
        <path
           d="m 0,0 c -2.073,-2.036 -4.68,-4.251 -5.655,-7.054 -0.16,-0.462 0.439,-0.941 0.847,-0.651 2.368,1.678 3.976,4.45 5.907,6.606 C 1.763,-0.356 0.72,0.707 0,0"
           style="fill:#588282;fill-opacity:1;fill-rule:nonzero;stroke:none"
           id="path1012" />
      </g>
      <g
         id="g1014"
         transform="translate(354.9732,90.6801)"
         clip-path="url(#clipPath2590)">
        <path
           d="m 0,0 c -0.428,-0.735 -1.14,-1.402 -1.27,-2.264 -0.057,-0.38 0.234,-0.812 0.67,-0.67 0.992,0.322 1.436,1.326 1.817,2.223 C 1.562,0.1 0.471,0.808 0,0"
           style="fill:#588282;fill-opacity:1;fill-rule:nonzero;stroke:none"
           id="path1016" />
      </g>
      <g
         id="g1018"
         transform="translate(358.1472,113.4629)"
         clip-path="url(#clipPath2584)">
        <path
           d="m 0,0 c -6.617,-2.404 -13.656,-8.504 -15.427,-15.519 -0.204,-0.807 0.822,-1.155 1.273,-0.537 2.074,2.837 3.879,5.784 6.352,8.31 2.485,2.54 5.465,4.283 8.555,5.96 C 1.714,-1.264 1.052,0.382 0,0"
           style="fill:#94d7f6;fill-opacity:1;fill-rule:nonzero;stroke:none"
           id="path1020" />
      </g>
      <g
         id="g1022"
         transform="translate(341.0737,94.2778)"
         clip-path="url(#clipPath2578)">
        <path
           d="m 0,0 c -0.568,-1.473 -1.035,-3.268 -0.7,-4.839 0.128,-0.602 0.916,-0.601 1.214,-0.159 0.888,1.316 1.099,3.221 1.122,4.777 C 1.651,0.776 0.322,0.835 0,0"
           style="fill:#94d7f6;fill-opacity:1;fill-rule:nonzero;stroke:none"
           id="path1024" />
      </g>
      <g
         id="g1026"
         transform="translate(352.9074,119.4101)"
         clip-path="url(#clipPath2572)">
        <path
           d="m 0,0 c -3.004,-0.621 -5.721,-2.394 -7.732,-4.701 -0.376,-0.431 0.19,-0.99 0.623,-0.623 2.273,1.932 4.74,3.288 7.455,4.504 C 0.834,-0.601 0.47,0.097 0,0"
           style="fill:#ffffff;fill-opacity:1;fill-rule:nonzero;stroke:none"
           id="path1028" />
      </g>
      <g
         id="g1030"
         transform="translate(358.4961,121.7586)"
         clip-path="url(#clipPath2566)">
        <path
           d="m 0,0 c -0.858,0.074 -1.617,-0.046 -2.457,-0.224 -1.081,-0.23 -0.622,-1.882 0.455,-1.653 0.834,0.177 1.546,0.388 2.293,0.802 C 0.828,-0.776 0.539,-0.047 0,0"
           style="fill:#ffffff;fill-opacity:1;fill-rule:nonzero;stroke:none"
           id="path1032" />
      </g>
      <g
         id="g1034"
         transform="translate(289.2922,133.5738)"
         clip-path="url(#clipPath2560)">
        <path
           d="m 0,0 c -2.946,0.196 -5.972,-0.05 -8.883,-0.545 -0.769,-0.13 -0.522,-1.244 0.175,-1.29 2.955,-0.193 5.983,-0.096 8.902,0.403 C 1.048,-1.286 0.773,-0.052 0,0"
           style="fill:#ffffff;fill-opacity:1;fill-rule:nonzero;stroke:none"
           id="path1036" />
      </g>
      <g
         id="g1038"
         transform="translate(297.324,133.8781)"
         clip-path="url(#clipPath2554)">
        <path
           d="m 0,0 c -1.368,-0.06 -2.747,-0.034 -4.117,-0.05 -0.67,-0.008 -0.715,-0.879 -0.149,-1.102 1.476,-0.582 2.959,-0.501 4.409,0.098 C 0.661,-0.84 0.656,0.029 0,0"
           style="fill:#ffffff;fill-opacity:1;fill-rule:nonzero;stroke:none"
           id="path1040" />
      </g>
      <g
         id="g1042"
         transform="translate(379.59,97.9851)"
         clip-path="url(#clipPath2548)">
        <path
           d="m 0,0 c -0.458,-7.679 -4.401,-19.729 -24.564,-20.101 3.049,-4.186 8.25,-7.028 13.507,-7.028 0.957,0 1.906,0.093 2.822,0.279 7.438,1.5 13.295,9.234 12.791,16.886 C 4.31,-6.234 2.576,-2.723 0,0"
           style="fill:#224d4f;fill-opacity:1;fill-rule:nonzero;stroke:none"
           id="path1044" />
      </g>
      <g
         id="g1046"
         transform="translate(375.277,137.2332)"
         clip-path="url(#clipPath2542)">
        <path
           d="M 0,0 C 8.518,-0.019 16.709,-0.037 24.091,-0.053 19.818,10.181 15.198,20.03 13.937,20.73 13.294,20.913 9.65,21.115 4.743,21.262 6.395,14.663 5.241,7.331 1.335,1.736 0.916,1.136 0.468,0.56 0,0"
           style="fill:#265255;fill-opacity:1;fill-rule:nonzero;stroke:none"
           id="path1048" />
      </g>
      <g
         id="g1050"
         transform="translate(267.7119,137.7684)"
         clip-path="url(#clipPath2536)">
        <path
           d="m 0,0 c 0.188,-0.062 -0.187,0.132 -0.054,0.025 -0.09,0.073 -0.403,0.289 -0.433,0.313 -0.303,0.241 -0.547,0.518 -0.726,0.778 -0.122,0.179 -0.222,0.363 -0.369,0.525 -0.05,0.052 -0.098,0.106 -0.143,0.162 0.129,-0.152 -0.043,0.091 -0.054,0.11 0.061,-0.159 0.038,-0.107 -0.069,0.156 -0.129,0.22 -0.343,0.387 -0.59,0.453 C -2.709,2.596 -2.953,2.558 -3.198,2.423 -3.496,2.259 -3.693,1.91 -3.686,1.571 -3.668,0.595 -3.156,-0.143 -2.418,-0.74 -1.728,-1.297 -0.918,-1.785 0,-1.537 0.789,-1.323 0.731,-0.24 0,0"
           style="fill:#473833;fill-opacity:1;fill-rule:nonzero;stroke:none"
           id="path1052" />
      </g>
      <g
         id="g1054"
         transform="translate(272.3095,140.4732)"
         clip-path="url(#clipPath2530)">
        <path
           d="M 0,0 C -0.375,0.51 -0.709,1.058 -1.001,1.619 -1.29,2.175 -1.808,2.654 -2.279,3.057 -2.949,3.631 -3.803,2.925 -3.457,2.148 -3.196,1.561 -3.089,0.941 -2.765,0.38 -2.372,-0.3 -1.914,-0.817 -1.283,-1.283 -0.538,-1.832 0.546,-0.744 0,0"
           style="fill:#473833;fill-opacity:1;fill-rule:nonzero;stroke:none"
           id="path1056" />
      </g>
      <g
         id="g1058"
         transform="translate(442.1238,144.3848)"
         clip-path="url(#clipPath2524)">
        <path
           d="m 0,0 c -1.005,0.271 -1.845,-0.249 -2.445,-1.025 -0.294,-0.38 -0.568,-0.772 -0.814,-1.185 -0.21,-0.35 -0.37,-0.711 -0.594,-0.946 -0.782,-0.816 0.277,-2.336 1.25,-1.619 0.644,0.475 1.136,1.092 1.569,1.762 0.195,0.301 0.338,0.514 0.573,0.765 0.297,0.317 0.387,0.424 0.68,0.571 C 0.946,-1.315 0.733,-0.197 0,0"
           style="fill:#473833;fill-opacity:1;fill-rule:nonzero;stroke:none"
           id="path1060" />
      </g>
      <g
         id="g1062"
         transform="translate(444.2161,140.4857)"
         clip-path="url(#clipPath2518)">
        <path
           d="m 0,0 c -1.078,-0.55 -2.369,-0.524 -3.269,-1.433 -0.709,-0.717 0.396,-1.822 1.105,-1.105 0.914,0.923 2.562,0.392 2.99,1.903 C 0.967,-0.138 0.427,0.218 0,0"
           style="fill:#473833;fill-opacity:1;fill-rule:nonzero;stroke:none"
           id="path1064" />
      </g>
      <g
         id="g1066"
         transform="translate(447.8671,135.9822)"
         clip-path="url(#clipPath2512)">
        <path
           d="M 0,0 C -0.692,-0.184 -1.423,-0.29 -2.087,-0.56 -2.423,-0.696 -2.753,-0.844 -3.082,-0.997 -3.429,-1.158 -3.59,-1.416 -4,-1.5 c -0.55,-0.112 -0.43,-1.025 0.133,-0.982 0.698,0.053 1.168,0.422 1.821,0.617 0.841,0.251 1.633,0.582 2.431,0.951 C 0.912,-0.67 0.533,0.142 0,0"
           style="fill:#473833;fill-opacity:1;fill-rule:nonzero;stroke:none"
           id="path1068" />
      </g>
      <g
         id="g1070"
         transform="translate(442.2286,30.4258)"
         clip-path="url(#clipPath2506)">
        <path
           d="M 0,0 C -0.524,1.087 -0.501,2.406 -1,3.5 -1.289,4.133 -2.442,4.008 -2.542,3.299 -2.75,1.829 -2.502,-0.296 -1.154,-1.154 -0.388,-1.642 0.344,-0.713 0,0"
           style="fill:#473833;fill-opacity:1;fill-rule:nonzero;stroke:none"
           id="path1072" />
      </g>
      <g
         id="g1074"
         transform="translate(445.7777,33.9407)"
         clip-path="url(#clipPath2500)">
        <path
           d="m 0,0 c -0.308,0.516 -0.93,0.906 -0.887,1.559 0.067,1.027 -1.479,1.18 -1.75,0.237 -0.235,-0.819 -0.023,-1.579 0.366,-2.311 0.357,-0.673 1.016,-1.138 1.359,-1.796 0.274,-0.525 1.251,-0.464 1.342,0.175 C 0.544,-1.34 0.413,-0.691 0,0"
           style="fill:#473833;fill-opacity:1;fill-rule:nonzero;stroke:none"
           id="path1076" />
      </g>
      <g
         id="g1078"
         transform="translate(449.5752,37.7559)"
         clip-path="url(#clipPath2494)">
        <path
           d="m 0,0 c -0.563,0.675 -1.289,1.209 -2.063,1.621 -1.155,0.615 -2.181,-1.138 -1.025,-1.754 0.477,-0.254 0.909,-0.542 1.3,-0.915 0.386,-0.367 0.842,-0.895 1.02,-1.399 0.211,-0.599 1.27,-0.767 1.386,0 C 0.757,-1.523 0.607,-0.728 0,0"
           style="fill:#473833;fill-opacity:1;fill-rule:nonzero;stroke:none"
           id="path1080" />
      </g>
      <g
         id="g1082"
         transform="translate(268.9716,37.4039)"
         clip-path="url(#clipPath2488)">
        <path
           d="m 0,0 c -0.77,-0.532 -1.514,-1.283 -2.177,-1.948 -0.669,-0.67 -1.31,-1.351 -1.848,-2.133 -0.439,-0.638 0.484,-1.216 1.006,-0.776 1.382,1.164 3.535,1.772 4.451,3.425 C 1.913,-0.566 0.904,0.625 0,0"
           style="fill:#473833;fill-opacity:1;fill-rule:nonzero;stroke:none"
           id="path1084" />
      </g>
      <g
         id="g1086"
         transform="translate(271.0139,33.4861)"
         clip-path="url(#clipPath2482)">
        <path
           d="m 0,0 c -0.508,-0.524 -0.824,-1.138 -1.103,-1.806 -0.264,-0.633 -0.463,-1.358 -0.856,-1.92 -0.294,-0.42 0.286,-0.993 0.705,-0.705 0.574,0.392 0.986,0.873 1.254,1.514 0.283,0.676 0.468,1.39 0.972,1.945 C 1.565,-0.319 0.621,0.64 0,0"
           style="fill:#473833;fill-opacity:1;fill-rule:nonzero;stroke:none"
           id="path1088" />
      </g>
      <g
         id="g1090"
         transform="translate(276.5469,33.5)"
         clip-path="url(#clipPath2476)">
        <path
           d="M 0,0 C -0.075,0.566 -0.419,1.047 -1.047,1.047 -1.565,1.047 -2.163,0.568 -2.094,0 -2.016,-0.632 -2.127,-1.212 -2.318,-1.814 -2.482,-2.334 -2.713,-3.055 -3.077,-3.47 -3.519,-3.972 -3.103,-5.038 -2.347,-4.723 -0.559,-3.978 0.247,-1.859 0,0"
           style="fill:#473833;fill-opacity:1;fill-rule:nonzero;stroke:none"
           id="path1092" />
      </g>
    </g>
  </g>
</svg>
