<svg width="60.662mm" height="3.4789mm" version="1.1" viewBox="0 0 60.662 3.4789" xmlns="http://www.w3.org/2000/svg">
 <g transform="translate(-38.416 -69.378)">
  <g transform="matrix(.35278 0 0 -.35278 70.246 71.218)" clip-path="url(#clipPath79400)">
   <path d="m0 0c-0.896-1.608-2.348-2.837-3.734-4.014-1.554 0.994-3.417 1.943-4.673 3.319-0.496 0.466-0.843 1.016-1.038 1.653-0.762 1.308 0.152 1.856 2.74 1.646 0.642-0.439 1.202-2 1.602-2.672 0.127-0.214 0.433-0.206 0.562 0 0.681 1.093 1.509 1.972 2.675 2.56 1.12 0.844 1.948 0.485 2.484-1.079-0.142-0.502-0.348-0.973-0.618-1.413m-20.494-2.735c-1.231-0.408-2.506-0.626-3.795-0.755 0.721 0.135 1.438 0.285 2.152 0.447 0.053-0.02 0.109-0.033 0.174-0.024 1.098 0.147 2.096 0.57 3.069 1.062 0.055 0.014 0.11 0.03 0.165 0.044-0.564-0.3-1.146-0.569-1.765-0.774m-24.575 0c-1.231-0.408-2.506-0.626-3.795-0.755 0.72 0.135 1.438 0.285 2.153 0.447 0.052-0.02 0.107-0.033 0.173-0.024 1.098 0.147 2.096 0.57 3.069 1.062 0.055 0.014 0.11 0.03 0.164 0.044-0.563-0.3-1.144-0.569-1.764-0.774m-24.576 0c-1.23-0.408-2.505-0.626-3.793-0.755 0.719 0.135 1.437 0.285 2.152 0.447 0.052-0.02 0.108-0.033 0.173-0.024 1.097 0.147 2.095 0.57 3.069 1.062 0.055 0.014 0.109 0.03 0.164 0.044-0.563-0.3-1.144-0.569-1.765-0.774m-12.796 1.279c-1.032-0.514-2.935-1.35-4.094-0.879-0.667-0.075-0.858 0.291-0.569 1.096-0.382 0.753-0.259 1.126 0.368 1.119 0.392 0.274 1.382 0.246 1.832 0.309 0.039 6e-3 0.078 9e-3 0.117 0.014 0.735-0.05 1.474-0.052 2.192-0.03v-0.129h2.221c-0.599-0.619-1.286-1.11-2.067-1.5m-2.372 2.371c-0.777 0.071-1.713 0.175-2.488 0.407-0.321 0.128-0.643 0.256-0.965 0.383-0.648 1.332-0.574 1.928 0.223 1.791 1.086 0.204 2.783-0.515 3.781-0.911 1.074-0.427 2.047-0.974 2.976-1.63-0.868 0.049-2.188 0.069-3.488-0.042-0.013 2e-3 -0.026 1e-3 -0.039 2e-3m18.085-1.871 0.12 0.03c-0.045-0.014-0.09-0.03-0.135-0.043 6e-3 4e-3 0.011 9e-3 0.015 0.013m-5.063-1.454c0 5e-3 -4e-3 0.01-4e-3 0.014 0.145 0.049 0.29 0.094 0.435 0.141 1e-3 -0.019 3e-3 -0.038 6e-3 -0.057-0.145-0.033-0.291-0.066-0.437-0.098m17.701 3.41c0.268-0.059 0.535-0.118 0.802-0.177-0.314-6e-3 -0.626-0.013-0.939-8e-3 0.07 0.046 0.118 0.107 0.137 0.185m-12.434 3.495c-0.012 7e-3 -0.024 0.015-0.036 0.023 0.016-1e-3 0.033-2e-3 0.048-2e-3 -3e-3 -8e-3 -9e-3 -0.013-0.012-0.021m12.231-2.786h1e-3zm-3.488 0.769-2.781 0.612c0.073 0.029 0.127 0.081 0.164 0.148 0.877-0.224 1.75-0.484 2.617-0.76m15.629-3.434c0.04 0.01 0.079 0.02 0.119 0.03-0.045-0.014-0.09-0.03-0.135-0.043 6e-3 4e-3 0.01 9e-3 0.016 0.013m-5.064-1.454c0 5e-3 -4e-3 0.01-4e-3 0.014 0.145 0.049 0.29 0.094 0.435 0.141 1e-3 -0.019 3e-3 -0.038 7e-3 -0.057-0.146-0.033-0.291-0.066-0.438-0.098m17.701 3.41c0.268-0.059 0.536-0.118 0.802-0.177-0.313-6e-3 -0.627-0.013-0.938-8e-3 0.069 0.046 0.116 0.107 0.136 0.185m-12.434 3.495c-0.012 7e-3 -0.024 0.015-0.035 0.023 0.015-1e-3 0.032-2e-3 0.047-2e-3 -2e-3 -8e-3 -0.01-0.013-0.012-0.021m12.231-2.786h1e-3zm-3.488 0.769-2.78 0.612c0.072 0.029 0.127 0.081 0.162 0.148 0.879-0.224 1.751-0.484 2.618-0.76m15.629-3.434c0.04 0.01 0.079 0.02 0.119 0.03-0.045-0.014-0.09-0.03-0.135-0.043 6e-3 4e-3 0.01 9e-3 0.016 0.013m-5.064-1.454c0 5e-3 -4e-3 0.01-4e-3 0.014 0.145 0.049 0.291 0.094 0.435 0.141 1e-3 -0.019 3e-3 -0.038 7e-3 -0.057-0.146-0.033-0.291-0.066-0.438-0.098m23.921 5.547c-1.347 2.171-4.841-0.907-6.074-2.454-1.06 1.765-3.864 6.128-5.428 2.672-0.426-0.942-0.36-1.832 0-2.66h-3.655c-0.07 0.028-0.15 0.029-0.234 0h-12.796c-0.012 0.034-0.03 0.065-0.052 0.092 0.069 0.138 0.054 0.312-0.123 0.404-5.022 2.595-10.439 3.953-16.092 4.026-0.343 4e-3 -0.415-0.43-0.164-0.606 2.767-1.936 5.821-3.239 9.027-3.916h-4.141c-0.07 0.028-0.151 0.029-0.235 0h-12.795c-0.012 0.034-0.03 0.065-0.052 0.092 0.069 0.138 0.054 0.312-0.123 0.404-5.023 2.595-10.44 3.953-16.092 4.026-0.343 4e-3 -0.415-0.43-0.164-0.606 2.767-1.936 5.821-3.239 9.027-3.916h-4.141c-0.071 0.028-0.151 0.029-0.235 0h-16.728c-9e-3 0.062-0.036 0.124-0.105 0.178-1.717 1.355-3.63 2.386-5.76 2.92-0.936 0.234-3.617 0.957-4.255-0.194-0.605-1.092 1.29-2.379 2.025-2.693 0.346-0.148 0.715-0.261 1.091-0.359-1.428-0.396-2.345-1.113-1.719-2.376 0.654-1.32 2.683-1.333 3.891-1.128 1.934 0.329 3.914 1.345 5.191 2.84 0.044 0.051 0.064 0.106 0.073 0.161h10.573c-3.082-0.544-6.001-1.586-8.424-3.835-0.204-0.189-0.049-0.564 0.229-0.555 2.585 0.087 5.229 0.173 7.708 0.984 2.039 0.668 3.701 1.989 5.553 3.004 0.015 3e-3 0.028 6e-3 0.043 9e-3 0.085 0.016 0.14 0.058 0.178 0.11 0.174 0.092 0.35 0.178 0.528 0.264 4e-3 1e-3 8e-3 3e-3 0.012 5e-3 0.01 5e-3 0.018 0.01 0.028 0.014h18.72c-3.082-0.544-6.001-1.586-8.424-3.835-0.204-0.189-0.049-0.564 0.23-0.555 2.584 0.087 5.228 0.173 7.708 0.984 2.039 0.668 3.701 1.989 5.552 3.004 0.015 3e-3 0.029 6e-3 0.043 9e-3 0.085 0.016 0.14 0.058 0.178 0.11 0.174 0.092 0.351 0.178 0.528 0.264 4e-3 1e-3 8e-3 3e-3 0.012 5e-3 0.01 5e-3 0.019 0.01 0.028 0.014h18.72c-3.083-0.544-6.001-1.586-8.424-3.835-0.204-0.189-0.049-0.564 0.23-0.555 2.585 0.087 5.228 0.173 7.708 0.984 2.038 0.668 3.701 1.989 5.552 3.004 0.015 3e-3 0.029 6e-3 0.043 9e-3 0.085 0.016 0.14 0.058 0.178 0.11 0.174 0.092 0.351 0.178 0.528 0.263l0.012 6e-3c0.01 5e-3 0.019 0.01 0.029 0.014h4.11c1.319-2.054 4.323-3.667 5.837-4.638 0.114-0.073 0.222-0.059 0.308-6e-3 0.11-0.05 0.244-0.049 0.359 0.048 1.539 1.307 3.142 2.686 4.089 4.508 0.411 0.791 1.104 2.298 0.556 3.181" fill="#303030"/>
  </g>
  <g transform="matrix(.35278 0 0 -.35278 97.421 70.865)" clip-path="url(#clipPath79394)">
   <path d="m0 0c-0.284-0.036-0.566-0.061-0.85-0.084-1.268 0.101-2.541 0.082-3.379 0.035 0.766 0.546 1.572 1.025 2.436 1.414 0.686 0.308 3.608 1.568 4.332 1.129 0.495 0.122 0.58-0.174 0.255-0.888 0.246-0.837-0.086-1.266-0.997-1.286-0.582-0.177-1.197-0.243-1.797-0.32m1.231-1.122c1.008-0.437 0.922-1.944-0.201-2.215-2.043-0.494-4.697 0.881-6.154 2.379h2.215v0.129c0.759-0.024 1.541-0.018 2.317 0.041 0.613-0.063 1.421-0.159 1.823-0.334m-18.82-1.85c0.043-0.011 0.086-0.024 0.129-0.035 0.973-0.492 1.972-0.915 3.069-1.062 0.065-9e-3 0.121 4e-3 0.173 0.025 0.739-0.168 1.481-0.322 2.225-0.461-1.317 0.125-2.619 0.343-3.866 0.768-0.606 0.206-1.177 0.471-1.73 0.765m-24.575 0c0.043-0.011 0.086-0.024 0.129-0.035 0.973-0.492 1.972-0.915 3.069-1.062 0.065-9e-3 0.121 4e-3 0.173 0.025 0.738-0.168 1.48-0.322 2.225-0.461-1.317 0.125-2.62 0.343-3.867 0.768-0.605 0.206-1.176 0.471-1.729 0.765m-24.575 0c0.043-0.011 0.086-0.024 0.129-0.035 0.973-0.492 1.971-0.915 3.069-1.062 0.064-9e-3 0.121 4e-3 0.173 0.025 0.738-0.168 1.48-0.322 2.224-0.461-1.316 0.125-2.619 0.343-3.866 0.768-0.605 0.206-1.177 0.471-1.729 0.765m-1.188 1.014c6e-3 -4e-3 0.01-9e-3 0.016-0.013-0.046 0.013-0.091 0.029-0.136 0.043 0.04-9e-3 0.08-0.02 0.12-0.03m4.626-1.356c4e-3 0.019 6e-3 0.038 7e-3 0.057 0.145-0.047 0.29-0.092 0.435-0.14 0-6e-3 -4e-3 -0.01-4e-3 -0.015-0.147 0.032-0.292 0.065-0.438 0.098m7.515 4.022c0-1e-3 -1e-3 -1e-3 -1e-3 -1e-3 0 1e-3 1e-3 1e-3 1e-3 1e-3m12.219 2.806c0.015 0 0.031 1e-3 0.047 2e-3 -0.011-8e-3 -0.023-0.016-0.035-0.023-3e-3 8e-3 -9e-3 0.013-0.012 0.021m-12.422-3.516c0.019-0.079 0.066-0.139 0.135-0.185-0.311-5e-3 -0.625 2e-3 -0.938 8e-3 0.268 0.059 0.535 0.118 0.803 0.177m6.308 2.238c0.035-0.067 0.091-0.119 0.162-0.149-0.925-0.203-1.852-0.407-2.778-0.611 0.866 0.276 1.737 0.536 2.616 0.76m6.329-4.194c5e-3 -4e-3 0.01-9e-3 0.016-0.013-0.046 0.013-0.091 0.029-0.136 0.043 0.04-9e-3 0.08-0.02 0.12-0.03m4.626-1.356c4e-3 0.019 6e-3 0.038 6e-3 0.057 0.146-0.047 0.291-0.092 0.436-0.14 0-5e-3 -4e-3 -0.01-4e-3 -0.015-0.147 0.032-0.292 0.065-0.438 0.098m7.515 4.022c-1e-3 0-1e-3 -1e-3 -1e-3 -1e-3 0 1e-3 0 1e-3 1e-3 1e-3m12.218 2.806c0.016 0 0.032 1e-3 0.049 2e-3 -0.012-8e-3 -0.024-0.016-0.035-0.023-3e-3 8e-3 -0.01 0.013-0.014 0.021m-12.422-3.516c0.02-0.079 0.067-0.139 0.137-0.185-0.312-5e-3 -0.625 2e-3 -0.939 8e-3 0.268 0.059 0.535 0.118 0.802 0.177m6.31 2.238c0.035-0.067 0.09-0.119 0.162-0.149-0.926-0.203-1.853-0.407-2.779-0.611 0.867 0.276 1.739 0.536 2.617 0.76m6.329-4.194c5e-3 -4e-3 9e-3 -9e-3 0.015-0.013-0.046 0.013-0.091 0.029-0.135 0.043zm4.626-1.356c4e-3 0.019 5e-3 0.038 5e-3 0.057 0.146-0.047 0.291-0.092 0.436-0.14 0-5e-3 -4e-3 -0.01-4e-3 -0.015-0.147 0.032-0.292 0.065-0.437 0.098m18.756 5.911c-0.517 1.173-3.422 0.403-4.254 0.194-2.132-0.534-4.044-1.564-5.762-2.92-0.068-0.054-0.095-0.116-0.104-0.178h-16.728c-0.084 0.029-0.165 0.028-0.235 0h-4.141c3.206 0.677 6.26 1.98 9.027 3.916 0.25 0.176 0.179 0.61-0.164 0.606-5.652-0.073-11.07-1.431-16.092-4.026-0.177-0.092-0.192-0.266-0.123-0.404-0.022-0.027-0.041-0.058-0.051-0.092h-12.796c-0.084 0.029-0.165 0.028-0.235 0h-4.141c3.206 0.677 6.259 1.98 9.027 3.916 0.25 0.176 0.179 0.61-0.164 0.606-5.652-0.073-11.07-1.431-16.092-4.026-0.178-0.092-0.192-0.266-0.123-0.404-0.022-0.027-0.04-0.058-0.052-0.092h-12.796c-0.084 0.029-0.165 0.028-0.234 0h-4.299v-0.651h4.402c9e-3 -4e-3 0.018-9e-3 0.027-0.013 4e-3 -3e-3 9e-3 -5e-3 0.013-7e-3 0.177-0.084 0.354-0.171 0.528-0.263 0.037-0.052 0.092-0.094 0.178-0.11 0.014-3e-3 0.028-6e-3 0.043-9e-3 1.851-1.015 3.512-2.336 5.552-3.004 2.479-0.811 5.124-0.897 7.708-0.984 0.278-9e-3 0.435 0.365 0.23 0.556-2.423 2.247-5.343 3.29-8.426 3.834h18.722l0.027-0.013c4e-3 -3e-3 9e-3 -5e-3 0.013-7e-3 0.178-0.084 0.354-0.171 0.528-0.263 0.038-0.052 0.093-0.094 0.178-0.11 0.015-3e-3 0.028-6e-3 0.043-9e-3 1.851-1.015 3.513-2.336 5.553-3.004 2.478-0.811 5.124-0.897 7.708-0.984 0.277-9e-3 0.434 0.365 0.229 0.556-2.423 2.247-5.343 3.29-8.426 3.834h18.722l0.027-0.013c4e-3 -3e-3 8e-3 -5e-3 0.013-7e-3 0.178-0.084 0.355-0.171 0.528-0.263 0.037-0.052 0.092-0.094 0.178-0.11 0.015-3e-3 0.028-6e-3 0.043-9e-3 1.852-1.015 3.513-2.336 5.553-3.004 2.478-0.811 5.124-0.897 7.708-0.984 0.276-9e-3 0.434 0.365 0.229 0.556-2.423 2.247-5.343 3.29-8.426 3.834h10.575c9e-3 -0.055 0.028-0.11 0.072-0.161 1.281-1.499 3.254-2.506 5.191-2.839 1.229-0.212 3.22-0.187 3.892 1.127 0.646 1.264-0.281 1.98-1.724 2.374 0.378 0.099 0.748 0.212 1.096 0.361 0.826 0.354 2.531 1.544 2.025 2.693" fill="#303030"/>
  </g>
 </g>
</svg>
