<?xml version="1.0" encoding="UTF-8" standalone="no"?>
<!-- Created with Inkscape (http://www.inkscape.org/) -->

<svg
   width="75.665192mm"
   height="19.294725mm"
   viewBox="0 0 75.665192 19.294725"
   version="1.1"
   id="svg75763"
   xmlns="http://www.w3.org/2000/svg"
   xmlns:svg="http://www.w3.org/2000/svg">
  <g
     id="layer1"
     transform="translate(-12.288272,-79.757426)">
    <g
       id="g56265"
       transform="matrix(0.35277777,0,0,-0.35277777,50.359242,93.475514)"
       clip-path="url(#clipPath68034)">
      <path
         d="m 0,0 c -3.691,1.32 -6.869,3.996 -8.863,7.363 -0.999,1.687 -1.813,3.647 -2.045,5.609 -0.131,1.112 0.055,2.461 1.115,3.085 1.156,0.682 2.38,-0.285 3.337,-0.887 0.273,-0.171 0.578,0.224 0.344,0.447 -1.279,1.22 -3.259,2.131 -4.692,0.603 -1.335,-1.423 -0.981,-3.532 -0.509,-5.239 C -10.36,7.532 -8.266,4.404 -5.502,2.14 -3.93,0.852 -2.14,-0.132 -0.218,-0.793 0.285,-0.966 0.495,-0.177 0,0"
         style="fill:#231f20;fill-opacity:1;fill-rule:nonzero;stroke:none"
         id="path56267" />
    </g>
    <g
       id="g56269"
       transform="matrix(0.35277777,0,0,-0.35277777,48.34541,88.001602)"
       clip-path="url(#clipPath68028)">
      <path
         d="M 0,0 C -0.162,2.053 0.273,4.34 1.583,5.982 2.744,7.438 4.594,8.369 6.476,8.058 8.295,7.756 9.855,6.482 10.774,4.92 c 1.123,-1.908 1.304,-4.074 1.411,-6.234 0.02,-0.413 0.611,-0.41 0.638,0 0.232,3.459 -0.886,7.401 -3.998,9.3 C 7.5,8.794 5.882,9.14 4.364,8.735 2.811,8.32 1.476,7.237 0.626,5.887 -0.492,4.113 -0.661,2.036 -0.411,0 -0.379,-0.256 0.021,-0.268 0,0"
         style="fill:#231f20;fill-opacity:1;fill-rule:nonzero;stroke:none"
         id="path56271" />
    </g>
    <g
       id="g56273"
       transform="matrix(0.35277777,0,0,-0.35277777,52.798877,88.66994)"
       clip-path="url(#clipPath68022)">
      <path
         d="m 0,0 c 0.241,-2.634 -0.244,-5.272 -1.33,-7.682 -1.094,-2.43 -2.783,-4.28 -4.711,-6.074 -0.106,-0.099 0.03,-0.271 0.154,-0.199 2.276,1.327 3.977,3.737 5.032,6.104 C 0.238,-5.398 0.67,-2.671 0.402,0 0.377,0.255 -0.023,0.259 0,0"
         style="fill:#231f20;fill-opacity:1;fill-rule:nonzero;stroke:none"
         id="path56275" />
    </g>
    <g
       id="g56277"
       transform="matrix(0.35277777,0,0,-0.35277777,50.604035,93.711839)"
       clip-path="url(#clipPath68016)">
      <path
         d="M 0,0 C 0.715,0 0.716,1.111 0,1.111 -0.715,1.111 -0.716,0 0,0"
         style="fill:#231f20;fill-opacity:1;fill-rule:nonzero;stroke:none"
         id="path56279" />
    </g>
    <g
       id="g56281"
       transform="matrix(0.35277777,0,0,-0.35277777,48.174525,88.350429)"
       clip-path="url(#clipPath68010)">
      <path
         d="m 0,0 c 0.748,-2.545 1.669,-5.032 2.742,-7.458 0.532,-1.201 1.105,-2.384 1.718,-3.546 0.315,-0.598 0.644,-1.187 0.986,-1.77 0.327,-0.557 0.632,-1.197 1.1,-1.648 0.178,-0.172 0.515,-0.003 0.432,0.251 -0.183,0.554 -0.545,1.04 -0.84,1.541 -0.342,0.582 -0.674,1.17 -1.001,1.761 C 4.5,-9.722 3.903,-8.552 3.347,-7.363 2.212,-4.938 1.273,-2.425 0.498,0.137 0.402,0.454 -0.094,0.32 0,0"
         style="fill:#231f20;fill-opacity:1;fill-rule:nonzero;stroke:none"
         id="path56283" />
    </g>
    <g
       id="g56285"
       transform="matrix(0.35277777,0,0,-0.35277777,52.660729,86.696959)"
       clip-path="url(#clipPath68004)">
      <path
         d="M 0,0 C 0.856,1.809 3.271,2.396 4.768,1.001 5.551,0.272 5.73,-0.786 5.84,-1.802 5.944,-2.771 6.01,-3.746 6.013,-4.72 6.02,-6.758 5.725,-8.846 4.746,-10.661 c -0.944,-1.749 -2.42,-3.111 -3.901,-4.401 -1.793,-1.561 -3.621,-3.268 -5.842,-4.194 -0.405,-0.17 -0.262,-0.747 0.184,-0.667 1.131,0.204 2.069,0.853 2.955,1.555 1.017,0.806 1.991,1.669 2.954,2.537 1.742,1.571 3.536,3.231 4.518,5.405 0.943,2.089 1.135,4.419 1.024,6.683 C 6.542,-1.786 6.504,0.703 4.632,1.85 2.763,2.996 0.47,2.122 -0.312,0.131 -0.382,-0.047 -0.083,-0.174 0,0"
         style="fill:#231f20;fill-opacity:1;fill-rule:nonzero;stroke:none"
         id="path56287" />
    </g>
    <g
       id="g56289"
       transform="matrix(0.35277777,0,0,-0.35277777,53.310475,90.314801)"
       clip-path="url(#clipPath67998)">
      <path
         d="M 0,0 C -0.703,-1.562 -1.629,-3.051 -2.674,-4.406 -3.201,-5.088 -3.772,-5.737 -4.382,-6.347 -5.007,-6.971 -5.719,-7.5 -6.334,-8.13 c -0.133,-0.136 0.035,-0.352 0.201,-0.261 0.763,0.419 1.418,1.058 2.039,1.662 0.648,0.633 1.253,1.309 1.81,2.022 1.096,1.401 1.928,2.934 2.588,4.579 C 0.374,0.045 0.078,0.172 0,0"
         style="fill:#231f20;fill-opacity:1;fill-rule:nonzero;stroke:none"
         id="path56291" />
    </g>
    <g
       id="g56293"
       transform="matrix(0.35277777,0,0,-0.35277777,47.895478,90.260544)"
       clip-path="url(#clipPath67992)">
      <path
         d="m 0,0 c 0.954,-1.917 2.123,-3.709 3.483,-5.363 0.665,-0.81 1.367,-1.603 2.125,-2.327 0.56,-0.535 1.425,-1.364 2.267,-1.231 0.134,0.021 0.172,0.214 0.079,0.299 -0.3,0.274 -0.709,0.415 -1.049,0.638 C 6.509,-7.725 6.157,-7.406 5.819,-7.076 5.1,-6.372 4.421,-5.622 3.779,-4.848 2.478,-3.279 1.323,-1.586 0.31,0.181 0.194,0.383 -0.103,0.205 0,0"
         style="fill:#231f20;fill-opacity:1;fill-rule:nonzero;stroke:none"
         id="path56295" />
    </g>
    <g
       id="g56297"
       transform="matrix(0.35277777,0,0,-0.35277777,49.740505,89.405128)"
       clip-path="url(#clipPath67986)">
      <path
         d="m 0,0 c 0.287,-1.982 0.6,-3.956 1.017,-5.915 0.203,-0.958 0.438,-1.909 0.679,-2.858 0.249,-0.977 0.47,-1.995 0.854,-2.928 0.117,-0.284 0.517,-0.182 0.464,0.128 C 2.848,-10.613 2.531,-9.67 2.28,-8.729 2.018,-7.747 1.775,-6.76 1.526,-5.774 1.038,-3.843 0.556,-1.909 0.143,0.04 0.123,0.135 -0.014,0.092 0,0"
         style="fill:#231f20;fill-opacity:1;fill-rule:nonzero;stroke:none"
         id="path56299" />
    </g>
    <g
       id="g56301"
       transform="matrix(0.35277777,0,0,-0.35277777,50.734951,90.266753)"
       clip-path="url(#clipPath67980)">
      <path
         d="M 0,0 C 0.366,-1.498 0.52,-3.057 0.459,-4.599 0.429,-5.358 0.342,-6.115 0.212,-6.864 0.078,-7.636 -0.169,-8.378 -0.32,-9.146 c -0.033,-0.169 0.207,-0.298 0.296,-0.125 0.696,1.36 0.901,3.081 0.949,4.589 C 0.978,-3.063 0.75,-1.473 0.278,0.077 0.225,0.254 -0.044,0.181 0,0"
         style="fill:#231f20;fill-opacity:1;fill-rule:nonzero;stroke:none"
         id="path56303" />
    </g>
    <g
       id="g56305"
       transform="matrix(0.35277777,0,0,-0.35277777,51.88423,88.344396)"
       clip-path="url(#clipPath67974)">
      <path
         d="m 0,0 c 0.019,-2.781 0.091,-5.52 -0.47,-8.262 -0.241,-1.176 -0.638,-2.321 -1.172,-3.397 -0.263,-0.529 -0.56,-1.041 -0.893,-1.529 -0.314,-0.458 -0.793,-0.867 -0.964,-1.401 -0.052,-0.163 0.132,-0.263 0.264,-0.203 0.466,0.211 0.772,0.745 1.055,1.157 0.353,0.515 0.664,1.06 0.937,1.622 0.544,1.122 0.924,2.31 1.218,3.52 C 0.642,-5.752 0.623,-2.786 0.289,0 0.267,0.179 -0.001,0.191 0,0"
         style="fill:#231f20;fill-opacity:1;fill-rule:nonzero;stroke:none"
         id="path56307" />
    </g>
    <g
       id="g56309"
       transform="matrix(0.35277777,0,0,-0.35277777,47.123282,92.806647)"
       clip-path="url(#clipPath67968)">
      <path
         d="m 0,0 c 1.017,0.399 1.952,-0.224 2.664,-0.913 0.703,-0.683 1.302,-1.422 2.121,-1.982 0.765,-0.523 1.707,-0.836 2.618,-0.986 1.017,-0.168 2.249,-0.305 3.091,0.398 0.497,0.414 0.188,1.218 -0.365,1.381 C 9.616,-1.95 9.138,-2.073 8.619,-2.104 8.187,-2.131 7.747,-2.123 7.318,-2.059 6.385,-1.92 5.427,-1.57 4.624,-1.078 3.158,-0.181 1.64,1.582 -0.243,0.576 -0.551,0.411 -0.337,-0.132 0,0"
         style="fill:#231f20;fill-opacity:1;fill-rule:nonzero;stroke:none"
         id="path56311" />
    </g>
    <g
       id="g56313"
       transform="matrix(0.35277777,0,0,-0.35277777,50.683269,93.787475)"
       clip-path="url(#clipPath67962)">
      <path
         d="M 0,0 C 0.307,-0.325 0.598,-0.653 0.988,-0.884 1.401,-1.129 1.93,-1.203 2.401,-1.237 3.379,-1.308 4.443,-0.89 5.241,-0.355 6.125,0.238 6.888,0.996 7.655,1.729 8.425,2.465 9.232,3.163 10,3.899 10.363,4.249 9.985,4.829 9.522,4.718 7.652,4.27 6.528,2.492 5.033,1.433 4.344,0.945 3.581,0.518 2.74,0.374 2.352,0.308 1.974,0.282 1.581,0.311 1.181,0.341 0.784,0.336 0.435,0.563 0.085,0.792 -0.272,0.289 0,0"
         style="fill:#231f20;fill-opacity:1;fill-rule:nonzero;stroke:none"
         id="path56315" />
    </g>
    <g
       id="g56317"
       transform="matrix(0.35277777,0,0,-0.35277777,50.723732,93.950952)"
       clip-path="url(#clipPath67956)">
      <path
         d="m 0,0 c 1.811,0.422 3.517,1.171 4.896,2.438 0.7,0.643 1.314,1.403 1.7,2.274 0.42,0.95 0.729,1.976 0.883,3.003 C 7.519,7.978 7.166,8.184 7.016,7.91 6.56,7.077 6.216,6.19 5.725,5.372 5.271,4.618 4.762,3.9 4.121,3.293 2.912,2.147 1.352,1.33 -0.237,0.86 -0.789,0.698 -0.56,-0.13 0,0"
         style="fill:#231f20;fill-opacity:1;fill-rule:nonzero;stroke:none"
         id="path56319" />
    </g>
    <g
       id="g56321"
       transform="matrix(0.35277777,0,0,-0.35277777,50.732516,93.521339)"
       clip-path="url(#clipPath67950)">
      <path
         d="M 0,0 C -0.349,0.258 -0.896,0.317 -1.309,0.445 -1.749,0.582 -2.15,0.782 -2.548,1.012 -3.43,1.519 -4.042,2.236 -4.785,2.911 -6.141,4.143 -8.263,5.128 -10.104,4.476 -10.543,4.32 -10.432,3.76 -9.999,3.702 -9.049,3.576 -8.118,3.468 -7.266,2.991 -6.395,2.502 -5.821,1.73 -5.135,1.029 -4.471,0.351 -3.709,-0.231 -2.833,-0.603 -2.044,-0.936 -0.813,-1.386 0,-0.937 0.388,-0.722 0.311,-0.23 0,0"
         style="fill:#231f20;fill-opacity:1;fill-rule:nonzero;stroke:none"
         id="path56323" />
    </g>
    <g
       id="g56325"
       transform="matrix(0.35277777,0,0,-0.35277777,52.559623,93.849317)"
       clip-path="url(#clipPath67944)">
      <path
         d="m 0,0 c 13.359,6.547 28.68,6.147 43.183,5.906 4.065,-0.068 8.141,-0.095 12.192,0.298 3.785,0.368 7.505,1.149 11.122,2.322 3.463,1.124 6.814,2.576 10.054,4.234 2.717,1.392 5.384,2.858 7.774,4.769 2.64,2.111 5.054,4.528 7.243,7.102 1.971,2.319 3.892,4.842 4.988,7.705 0.13,0.338 -0.418,0.565 -0.583,0.247 C 94.69,30.121 93.03,27.853 91.258,25.725 89.334,23.416 87.225,21.249 84.953,19.281 82.763,17.386 80.408,15.903 77.865,14.527 74.602,12.761 71.228,11.191 67.735,9.936 64.127,8.638 60.394,7.69 56.586,7.217 52.628,6.726 48.632,6.677 44.649,6.709 37.345,6.768 30.035,6.954 22.746,6.348 14.8,5.687 6.897,4.063 -0.27,0.461 -0.577,0.306 -0.307,-0.15 0,0"
         style="fill:#231f20;fill-opacity:1;fill-rule:nonzero;stroke:none"
         id="path56327" />
    </g>
    <g
       id="g56329"
       transform="matrix(0.35277777,0,0,-0.35277777,81.528217,88.033458)"
       clip-path="url(#clipPath67938)">
      <path
         d="m 0,0 c 1.276,8.002 9.128,12.687 14.372,18.029 1.44,1.468 2.81,3.049 3.795,4.865 0.219,0.406 -0.398,0.768 -0.62,0.362 C 15.676,19.833 12.553,17.181 9.683,14.618 6.829,12.07 3.928,9.487 1.82,6.26 0.612,4.41 -0.263,2.355 -0.583,0.161 -0.637,-0.217 -0.062,-0.385 0,0"
         style="fill:#231f20;fill-opacity:1;fill-rule:nonzero;stroke:none"
         id="path56331" />
    </g>
    <g
       id="g56333"
       transform="matrix(0.35277777,0,0,-0.35277777,87.716997,79.812607)"
       clip-path="url(#clipPath67932)">
      <path
         d="m 0,0 c -0.51,-1.053 -0.731,-2.29 -1.034,-3.412 -0.551,-2.046 -1.081,-4.097 -1.673,-6.132 -0.625,-2.151 -1.301,-4.298 -2.143,-6.375 -0.674,-1.664 -1.455,-3.309 -2.832,-4.501 -2.727,-2.363 -6.235,-3.062 -9.742,-2.68 -0.359,0.039 -0.417,-0.526 -0.084,-0.618 2.91,-0.798 6.261,-0.079 8.811,1.473 1.857,1.129 3.095,2.589 4.022,4.526 1.945,4.066 3.009,8.588 4.048,12.954 0.225,0.949 0.445,1.898 0.682,2.844 0.132,0.525 0.256,1.146 0.466,1.616 C 0.677,0.044 0.171,0.354 0,0"
         style="fill:#231f20;fill-opacity:1;fill-rule:nonzero;stroke:none"
         id="path56335" />
    </g>
    <g
       id="g56337"
       transform="matrix(0.35277777,0,0,-0.35277777,73.639294,91.12993)"
       clip-path="url(#clipPath67926)">
      <path
         d="m 0,0 c 0.124,2.326 0.851,4.563 1.718,6.709 0.795,1.967 1.74,3.869 2.845,5.68 2.264,3.711 5.154,6.823 8.365,9.726 1.821,1.646 3.651,3.273 5.148,5.231 0.187,0.245 -0.221,0.554 -0.426,0.328 C 14.619,24.347 10.944,21.688 7.945,18.333 5.094,15.144 2.807,11.467 1.175,7.514 0.189,5.126 -0.601,2.597 -0.7,0 -0.717,-0.452 -0.024,-0.448 0,0"
         style="fill:#231f20;fill-opacity:1;fill-rule:nonzero;stroke:none"
         id="path56339" />
    </g>
    <g
       id="g56341"
       transform="matrix(0.35277777,0,0,-0.35277777,79.711623,81.486573)"
       clip-path="url(#clipPath67920)">
      <path
         d="m 0,0 c -1.309,-8.827 -5.544,-17.111 -12.115,-23.174 -0.948,-0.874 -1.939,-1.702 -2.976,-2.469 -0.989,-0.731 -2.082,-1.33 -3.048,-2.086 -0.356,-0.278 0.099,-0.728 0.446,-0.577 1.022,0.447 1.97,1.181 2.868,1.835 0.922,0.671 1.815,1.381 2.674,2.13 1.711,1.493 3.292,3.141 4.704,4.92 2.81,3.537 5.049,7.564 6.471,11.857 0.806,2.431 1.31,4.938 1.552,7.486 C 0.606,0.248 0.048,0.327 0,0"
         style="fill:#231f20;fill-opacity:1;fill-rule:nonzero;stroke:none"
         id="path56343" />
    </g>
    <g
       id="g56345"
       transform="matrix(0.35277777,0,0,-0.35277777,73.649137,90.901506)"
       clip-path="url(#clipPath67914)">
      <path
         d="m 0,0 c 1.234,1.312 2.426,2.613 3.533,4.044 1.098,1.421 2.153,2.877 3.151,4.371 0.941,1.411 1.816,2.866 2.736,4.291 0.967,1.495 2.067,2.847 3.168,4.241 0.137,0.172 -0.044,0.492 -0.259,0.336 C 11.013,16.33 10.041,14.954 9.132,13.625 8.163,12.206 7.312,10.708 6.38,9.265 5.394,7.736 4.363,6.236 3.278,4.775 2.142,3.244 0.995,1.686 -0.204,0.204 -0.318,0.063 -0.13,-0.138 0,0"
         style="fill:#231f20;fill-opacity:1;fill-rule:nonzero;stroke:none"
         id="path56347" />
    </g>
    <g
       id="g56349"
       transform="matrix(0.35277777,0,0,-0.35277777,75.521364,90.960949)"
       clip-path="url(#clipPath67908)">
      <path
         d="m 0,0 c 4.101,0.592 8.301,-0.245 11.809,-2.463 3.391,-2.145 6.047,-5.332 9.82,-6.875 1.931,-0.789 4.176,-1.14 6.138,-0.277 0.35,0.154 0.082,0.632 -0.243,0.576 -2.039,-0.354 -4.022,-0.095 -5.918,0.735 -1.846,0.809 -3.449,2.038 -5.005,3.3 -1.552,1.257 -3.086,2.562 -4.82,3.569 C 10.092,-0.453 8.212,0.22 6.292,0.571 4.151,0.963 1.988,0.957 -0.144,0.523 -0.493,0.452 -0.337,-0.049 0,0"
         style="fill:#231f20;fill-opacity:1;fill-rule:nonzero;stroke:none"
         id="path56351" />
    </g>
    <g
       id="g56353"
       transform="matrix(0.35277777,0,0,-0.35277777,75.997825,90.984691)"
       clip-path="url(#clipPath67902)">
      <path
         d="m 0,0 c 0.989,-2.083 1.92,-4.2 3.167,-6.147 1.15,-1.8 2.575,-3.449 4.254,-4.775 1.614,-1.276 3.468,-2.208 5.511,-2.543 2.328,-0.382 4.709,-0.106 6.992,0.422 2.27,0.524 4.866,1.38 6.548,3.072 0.34,0.341 -0.094,0.908 -0.514,0.666 -0.882,-0.507 -1.719,-1.062 -2.654,-1.474 -0.923,-0.407 -1.879,-0.733 -2.853,-0.99 -2.115,-0.557 -4.363,-0.908 -6.552,-0.725 C 9.698,-12.141 6.44,-9.286 4.093,-5.991 2.692,-4.026 1.505,-1.909 0.385,0.225 0.25,0.482 -0.122,0.256 0,0"
         style="fill:#231f20;fill-opacity:1;fill-rule:nonzero;stroke:none"
         id="path56355" />
    </g>
    <g
       id="g56357"
       transform="matrix(0.35277777,0,0,-0.35277777,76.021073,90.858114)"
       clip-path="url(#clipPath67896)">
      <path
         d="m 0,0 c 0.978,-0.006 1.955,-0.827 2.668,-1.431 0.65,-0.55 1.25,-1.155 1.82,-1.788 1.12,-1.242 2.118,-2.59 3.265,-3.808 2.115,-2.247 5.115,-4.268 8.333,-3.319 0.413,0.121 0.235,0.7 -0.174,0.633 -3.541,-0.585 -6.413,1.908 -8.613,4.338 C 6.203,-4.164 5.162,-2.896 3.953,-1.793 2.947,-0.875 1.451,0.448 0,0.376 -0.24,0.364 -0.244,0.001 0,0"
         style="fill:#231f20;fill-opacity:1;fill-rule:nonzero;stroke:none"
         id="path56359" />
    </g>
    <g
       id="g56361"
       transform="matrix(0.35277777,0,0,-0.35277777,66.652989,91.346606)"
       clip-path="url(#clipPath67890)">
      <path
         d="m 0,0 c 1.604,1.445 2.492,3.417 3.28,5.386 0.821,2.054 1.673,4.046 2.917,5.887 2.403,3.56 5.798,6.448 9.661,8.313 2.175,1.05 4.53,1.743 6.897,2.201 0.292,0.056 0.229,0.55 -0.071,0.524 C 14.089,21.566 6.507,15.119 3.344,7.275 2.365,4.849 1.592,2.217 -0.383,0.384 -0.641,0.145 -0.258,-0.233 0,0"
         style="fill:#231f20;fill-opacity:1;fill-rule:nonzero;stroke:none"
         id="path56363" />
    </g>
    <g
       id="g56365"
       transform="matrix(0.35277777,0,0,-0.35277777,66.477306,91.470289)"
       clip-path="url(#clipPath67884)">
      <path
         d="m 0,0 c 9.198,1.102 17.23,6.924 21.199,15.294 1.059,2.233 1.949,4.692 2.237,7.158 0.046,0.395 -0.594,0.469 -0.687,0.093 C 22.213,20.39 21.671,18.294 20.743,16.265 19.842,14.297 18.709,12.426 17.364,10.729 14.645,7.298 11.081,4.567 7.075,2.805 4.779,1.795 2.389,1.063 -0.092,0.679 -0.472,0.62 -0.387,-0.046 0,0"
         style="fill:#231f20;fill-opacity:1;fill-rule:nonzero;stroke:none"
         id="path56367" />
    </g>
    <g
       id="g56369"
       transform="matrix(0.35277777,0,0,-0.35277777,66.390664,91.4596)"
       clip-path="url(#clipPath67878)">
      <path
         d="m 0,0 c 3.923,2.472 7.505,5.425 10.681,8.804 1.556,1.656 3.025,3.391 4.556,5.07 1.563,1.712 3.242,3.235 4.964,4.78 0.245,0.22 -0.079,0.651 -0.355,0.46 C 18.039,17.867 16.489,16.176 15.01,14.566 13.473,12.893 12.005,11.157 10.458,9.493 7.265,6.06 3.651,3.033 -0.283,0.484 -0.584,0.289 -0.307,-0.193 0,0"
         style="fill:#231f20;fill-opacity:1;fill-rule:nonzero;stroke:none"
         id="path56371" />
    </g>
    <g
       id="g56373"
       transform="matrix(0.35277777,0,0,-0.35277777,67.338401,91.690105)"
       clip-path="url(#clipPath67872)">
      <path
         d="m 0,0 c 5.894,-5.148 5.773,-14.571 12.569,-18.951 1.008,-0.649 2.123,-1.159 3.279,-1.48 1.16,-0.321 2.471,-0.577 3.664,-0.316 0.33,0.072 0.337,0.607 0,0.675 -1.067,0.213 -2.149,0.248 -3.204,0.538 -1.079,0.297 -2.119,0.73 -3.077,1.311 -1.7,1.03 -3.043,2.503 -4.114,4.164 -2.018,3.132 -3.151,6.732 -5.012,9.952 C 3.109,-2.383 1.906,-0.805 0.318,0.412 0.083,0.592 -0.224,0.195 0,0"
         style="fill:#231f20;fill-opacity:1;fill-rule:nonzero;stroke:none"
         id="path56375" />
    </g>
    <g
       id="g56377"
       transform="matrix(0.35277777,0,0,-0.35277777,67.658088,91.870798)"
       clip-path="url(#clipPath67866)">
      <path
         d="m 0,0 c 3.705,-0.49 7.282,-2.143 10.132,-4.55 2.929,-2.475 4.961,-5.677 6.133,-9.312 0.365,-1.136 0.701,-2.282 1.14,-3.392 0.386,-0.975 0.821,-2.151 1.613,-2.869 0.204,-0.184 0.637,-0.006 0.512,0.298 -0.422,1.021 -1.029,1.935 -1.41,2.984 -0.371,1.022 -0.665,2.071 -0.995,3.107 -0.601,1.886 -1.363,3.695 -2.472,5.343 -2.099,3.118 -5.1,5.694 -8.546,7.213 C 4.164,-0.321 2.116,0.199 0,0.385 -0.25,0.407 -0.239,0.032 0,0"
         style="fill:#231f20;fill-opacity:1;fill-rule:nonzero;stroke:none"
         id="path56379" />
    </g>
    <g
       id="g56381"
       transform="matrix(0.35277777,0,0,-0.35277777,67.771436,91.705416)"
       clip-path="url(#clipPath67860)">
      <path
         d="m 0,0 c 3.638,-2.085 6.442,-5.235 8.673,-8.744 1.07,-1.682 1.927,-3.473 2.934,-5.188 0.858,-1.461 2.082,-3.211 3.833,-3.609 0.328,-0.074 0.521,0.363 0.229,0.544 -0.853,0.532 -1.632,1.079 -2.276,1.862 -0.61,0.743 -1.095,1.587 -1.561,2.425 -0.961,1.728 -1.906,3.455 -3.026,5.088 C 6.576,-4.369 3.787,-1.404 0.23,0.393 -0.03,0.524 -0.256,0.146 0,0"
         style="fill:#231f20;fill-opacity:1;fill-rule:nonzero;stroke:none"
         id="path56383" />
    </g>
    <g
       id="g56385"
       transform="matrix(0.35277777,0,0,-0.35277777,58.406138,91.902478)"
       clip-path="url(#clipPath67854)">
      <path
         d="m 0,0 c 1.435,3.701 3.82,7.031 6.858,9.585 3.287,2.764 7.29,4.308 11.345,5.574 1.205,0.376 2.418,0.724 3.634,1.061 1.199,0.33 2.441,0.586 3.585,1.081 0.293,0.127 0.151,0.647 -0.166,0.611 -1.096,-0.124 -2.161,-0.46 -3.221,-0.753 -1.179,-0.325 -2.354,-0.661 -3.523,-1.02 C 16.28,15.453 14.068,14.686 11.939,13.722 8.253,12.054 5.054,9.405 2.654,6.155 1.298,4.318 0.248,2.293 -0.506,0.139 -0.619,-0.183 -0.12,-0.31 0,0"
         style="fill:#231f20;fill-opacity:1;fill-rule:nonzero;stroke:none"
         id="path56387" />
    </g>
    <g
       id="g56389"
       transform="matrix(0.35277777,0,0,-0.35277777,58.263863,91.885932)"
       clip-path="url(#clipPath67848)">
      <path
         d="m 0,0 c 8.223,2.109 16.514,5.562 22.291,12.017 0.738,0.825 1.431,1.694 2.067,2.601 0.612,0.871 1.34,1.831 1.669,2.853 0.089,0.277 -0.319,0.542 -0.512,0.298 C 24.94,17.04 24.534,16.172 24.01,15.403 23.44,14.568 22.818,13.77 22.154,13.008 20.892,11.559 19.484,10.232 17.982,9.034 14.667,6.389 10.851,4.41 6.913,2.871 4.604,1.967 2.249,1.17 -0.126,0.456 -0.417,0.368 -0.296,-0.076 0,0"
         style="fill:#231f20;fill-opacity:1;fill-rule:nonzero;stroke:none"
         id="path56391" />
    </g>
    <g
       id="g56393"
       transform="matrix(0.35277777,0,0,-0.35277777,58.338617,91.855099)"
       clip-path="url(#clipPath67842)">
      <path
         d="m 0,0 c 3.039,2.74 6.249,5.298 9.604,7.642 1.642,1.149 3.321,2.244 5.034,3.286 0.856,0.521 1.72,1.028 2.592,1.522 0.902,0.509 1.851,0.971 2.674,1.602 0.186,0.143 0.093,0.503 -0.175,0.416 C 17.84,13.854 16.068,12.615 14.383,11.584 12.61,10.499 10.873,9.355 9.175,8.156 5.815,5.782 2.628,3.184 -0.383,0.383 -0.64,0.145 -0.258,-0.233 0,0"
         style="fill:#231f20;fill-opacity:1;fill-rule:nonzero;stroke:none"
         id="path56395" />
    </g>
    <g
       id="g56397"
       transform="matrix(0.35277777,0,0,-0.35277777,56.843439,92.339322)"
       clip-path="url(#clipPath67836)">
      <path
         d="m 0,0 c 3.907,-2.085 6.573,-5.679 9.356,-9.004 1.375,-1.643 2.815,-3.26 4.502,-4.591 1.442,-1.137 3.05,-2.07 4.736,-2.796 1.821,-0.784 3.775,-1.368 5.771,-1.078 0.431,0.063 0.326,0.772 -0.102,0.757 -1.744,-0.064 -3.518,0.483 -5.115,1.139 -1.672,0.687 -3.297,1.599 -4.731,2.702 -3.369,2.593 -5.7,6.225 -8.671,9.217 -1.62,1.629 -3.415,3.09 -5.521,4.039 C -0.031,0.501 -0.258,0.138 0,0"
         style="fill:#231f20;fill-opacity:1;fill-rule:nonzero;stroke:none"
         id="path56399" />
    </g>
    <g
       id="g56401"
       transform="matrix(0.35277777,0,0,-0.35277777,57.012772,92.358972)"
       clip-path="url(#clipPath67830)">
      <path
         d="m 0,0 c 4.401,-0.169 8.905,-0.84 12.879,-2.836 3.374,-1.695 6.333,-4.309 8.051,-7.707 1.059,-2.096 1.359,-4.554 2.651,-6.533 0.242,-0.37 0.754,-0.051 0.582,0.34 -0.905,2.051 -1.368,4.262 -2.292,6.302 -0.792,1.746 -1.939,3.309 -3.301,4.653 C 15.598,-2.85 11.729,-1.071 7.68,-0.2 5.152,0.345 2.582,0.541 0,0.525 -0.339,0.522 -0.337,0.013 0,0"
         style="fill:#231f20;fill-opacity:1;fill-rule:nonzero;stroke:none"
         id="path56403" />
    </g>
    <g
       id="g56405"
       transform="matrix(0.35277777,0,0,-0.35277777,57.152648,92.326411)"
       clip-path="url(#clipPath67824)">
      <path
         d="m 0,0 c 4.044,-1.303 7.87,-3.275 11.208,-5.912 1.662,-1.312 3.168,-2.788 4.651,-4.296 0.782,-0.795 1.558,-1.601 2.378,-2.357 0.746,-0.689 1.556,-1.567 2.493,-1.984 0.235,-0.105 0.432,0.148 0.27,0.35 -0.676,0.847 -1.654,1.52 -2.431,2.281 -0.797,0.782 -1.579,1.578 -2.361,2.376 -1.525,1.557 -3.083,3.061 -4.82,4.382 C 8.025,-2.602 4.202,-0.658 0.142,0.515 -0.19,0.61 -0.326,0.105 0,0"
         style="fill:#231f20;fill-opacity:1;fill-rule:nonzero;stroke:none"
         id="path56407" />
    </g>
    <g
       id="g56409"
       transform="matrix(0.35277777,0,0,-0.35277777,49.231659,93.861206)"
       clip-path="url(#clipPath67818)">
      <path
         d="m 0,0 c -6.114,3.072 -12.905,4.614 -19.647,5.535 -7.062,0.965 -14.202,1.257 -21.325,1.277 -8.131,0.022 -16.367,-0.562 -24.373,1.192 -3.982,0.872 -7.85,2.233 -11.565,3.903 -1.816,0.816 -3.597,1.706 -5.347,2.654 -1.451,0.784 -2.91,1.575 -4.261,2.523 -2.571,1.807 -4.889,4 -7.029,6.293 -2.178,2.333 -4.136,4.824 -5.829,7.528 -0.351,0.559 -0.686,1.126 -0.989,1.711 -0.163,0.316 -0.715,0.095 -0.584,-0.246 1.07,-2.777 2.906,-5.231 4.809,-7.493 2.111,-2.509 4.439,-4.862 6.972,-6.948 2.576,-2.121 5.458,-3.728 8.426,-5.237 3.576,-1.819 7.289,-3.387 11.137,-4.536 3.997,-1.194 8.104,-1.864 12.266,-2.111 4.247,-0.252 8.501,-0.12 12.752,-0.062 7.11,0.098 14.238,-0.017 21.318,-0.728 C -16.25,4.55 -9.118,3.31 -2.575,0.585 -1.795,0.261 -1.027,-0.089 -0.27,-0.461 0.037,-0.611 0.308,-0.155 0,0"
         style="fill:#231f20;fill-opacity:1;fill-rule:nonzero;stroke:none"
         id="path56411" />
    </g>
    <g
       id="g56413"
       transform="matrix(0.35277777,0,0,-0.35277777,18.918947,87.976802)"
       clip-path="url(#clipPath67812)">
      <path
         d="m 0,0 c -1.162,7.983 -8.828,12.747 -14.088,18.013 -1.53,1.531 -2.998,3.173 -4.041,5.082 -0.222,0.405 -0.84,0.045 -0.62,-0.362 1.794,-3.311 4.763,-5.9 7.536,-8.373 2.884,-2.572 5.871,-5.125 8.057,-8.349 1.268,-1.87 2.216,-3.93 2.574,-6.172 C -0.521,-0.545 0.055,-0.379 0,0"
         style="fill:#231f20;fill-opacity:1;fill-rule:nonzero;stroke:none"
         id="path56415" />
    </g>
    <g
       id="g56417"
       transform="matrix(0.35277777,0,0,-0.35277777,12.340911,79.920098)"
       clip-path="url(#clipPath67806)">
      <path
         d="m 0,0 c 0.498,-1.112 0.693,-2.541 0.979,-3.748 0.511,-2.152 1.05,-4.298 1.652,-6.427 0.629,-2.227 1.322,-4.442 2.255,-6.562 0.801,-1.822 1.767,-3.349 3.378,-4.557 2.684,-2.013 6.486,-3.018 9.765,-2.12 0.33,0.091 0.279,0.659 -0.084,0.619 -3.112,-0.339 -6.137,0.145 -8.766,1.93 -1.728,1.174 -2.7,2.698 -3.525,4.577 C 3.9,-12.291 2.868,-7.989 1.738,-3.787 1.377,-2.448 1.129,-0.952 0.521,0.305 0.351,0.658 -0.156,0.349 0,0"
         style="fill:#231f20;fill-opacity:1;fill-rule:nonzero;stroke:none"
         id="path56419" />
    </g>
    <g
       id="g56421"
       transform="matrix(0.35277777,0,0,-0.35277777,26.849214,91.12993)"
       clip-path="url(#clipPath67800)">
      <path
         d="m 0,0 c -0.166,4.367 -2.135,8.732 -4.333,12.441 -2.249,3.794 -5.151,6.989 -8.432,9.912 -1.921,1.71 -3.85,3.418 -5.585,5.321 -0.203,0.223 -0.615,-0.081 -0.426,-0.328 2.625,-3.432 6.243,-5.923 9.137,-9.109 C -6.789,15.1 -4.456,11.486 -2.784,7.591 -1.749,5.18 -0.841,2.641 -0.7,0 -0.676,-0.447 0.018,-0.453 0,0"
         style="fill:#231f20;fill-opacity:1;fill-rule:nonzero;stroke:none"
         id="path56423" />
    </g>
    <g
       id="g56425"
       transform="matrix(0.35277777,0,0,-0.35277777,20.32713,81.514125)"
       clip-path="url(#clipPath67794)">
      <path
         d="m 0,0 c 0.854,-9.041 5.412,-17.593 12.091,-23.695 0.911,-0.833 1.865,-1.618 2.852,-2.36 1.033,-0.775 2.138,-1.654 3.326,-2.173 0.342,-0.149 0.804,0.296 0.445,0.578 -0.867,0.678 -1.849,1.216 -2.742,1.862 -0.892,0.645 -1.751,1.334 -2.578,2.059 -1.662,1.458 -3.188,3.062 -4.576,4.782 -2.814,3.486 -4.984,7.456 -6.441,11.689 C 1.558,-4.875 0.945,-2.415 0.576,0.078 0.527,0.402 -0.031,0.329 0,0"
         style="fill:#231f20;fill-opacity:1;fill-rule:nonzero;stroke:none"
         id="path56427" />
    </g>
    <g
       id="g56429"
       transform="matrix(0.35277777,0,0,-0.35277777,26.664571,90.829504)"
       clip-path="url(#clipPath67788)">
      <path
         d="m 0,0 c -1.199,1.481 -2.346,3.04 -3.482,4.571 -1.085,1.461 -2.116,2.961 -3.102,4.49 -0.932,1.443 -1.783,2.94 -2.752,4.359 -0.909,1.33 -1.881,2.705 -3.197,3.659 -0.214,0.155 -0.397,-0.162 -0.259,-0.336 1.078,-1.365 2.162,-2.686 3.109,-4.151 0.94,-1.454 1.834,-2.94 2.795,-4.381 0.99,-1.483 2.037,-2.927 3.126,-4.338 C -2.647,2.43 -1.448,1.119 -0.204,-0.204 -0.074,-0.342 0.114,-0.142 0,0"
         style="fill:#231f20;fill-opacity:1;fill-rule:nonzero;stroke:none"
         id="path56431" />
    </g>
    <g
       id="g56433"
       transform="matrix(0.35277777,0,0,-0.35277777,24.771318,90.776446)"
       clip-path="url(#clipPath67782)">
      <path
         d="m 0,0 c -3.765,0.765 -7.752,0.193 -11.176,-1.548 -3.626,-1.845 -6.272,-5.131 -9.904,-6.961 -2.079,-1.048 -4.288,-1.451 -6.589,-1.053 -0.321,0.056 -0.595,-0.42 -0.243,-0.576 3.569,-1.57 7.567,0.658 10.357,2.81 1.641,1.266 3.172,2.675 4.875,3.859 1.68,1.167 3.529,2.052 5.509,2.573 2.282,0.602 4.692,0.71 7.026,0.373 C 0.192,-0.572 0.349,-0.071 0,0"
         style="fill:#231f20;fill-opacity:1;fill-rule:nonzero;stroke:none"
         id="path56435" />
    </g>
    <g
       id="g56437"
       transform="matrix(0.35277777,0,0,-0.35277777,24.107955,90.905316)"
       clip-path="url(#clipPath67776)">
      <path
         d="m 0,0 c -1.877,-3.579 -3.961,-7.465 -7.166,-10.038 -1.54,-1.237 -3.367,-2.181 -5.319,-2.543 -2.227,-0.413 -4.569,-0.106 -6.758,0.387 -1.1,0.247 -2.179,0.573 -3.224,0.999 -1.104,0.451 -2.077,1.074 -3.105,1.665 -0.417,0.239 -0.857,-0.322 -0.514,-0.666 1.464,-1.474 3.658,-2.299 5.624,-2.84 2.271,-0.624 4.71,-1.009 7.066,-0.767 4.261,0.437 7.633,3.221 10.056,6.602 1.543,2.152 2.595,4.596 3.725,6.976 C 0.507,0.031 0.135,0.257 0,0"
         style="fill:#231f20;fill-opacity:1;fill-rule:nonzero;stroke:none"
         id="path56439" />
    </g>
    <g
       id="g56441"
       transform="matrix(0.35277777,0,0,-0.35277777,24.220632,90.725293)"
       clip-path="url(#clipPath67770)">
      <path
         d="m 0,0 c -1.423,0.07 -2.879,-1.201 -3.874,-2.098 -1.243,-1.119 -2.305,-2.416 -3.425,-3.653 -2.2,-2.43 -5.072,-4.924 -8.613,-4.339 -0.408,0.068 -0.588,-0.511 -0.174,-0.633 3.218,-0.948 6.218,1.073 8.333,3.319 1.147,1.219 2.146,2.566 3.265,3.809 0.57,0.632 1.17,1.238 1.82,1.788 0.712,0.603 1.694,1.425 2.668,1.431 0.243,0.001 0.241,0.364 0,0.376"
         style="fill:#231f20;fill-opacity:1;fill-rule:nonzero;stroke:none"
         id="path56443" />
    </g>
    <g
       id="g56445"
       transform="matrix(0.35277777,0,0,-0.35277777,33.723901,91.21121)"
       clip-path="url(#clipPath67764)">
      <path
         d="m 0,0 c -1.754,1.628 -2.564,3.9 -3.407,6.078 -0.789,2.038 -1.727,3.979 -2.992,5.767 -2.486,3.515 -5.889,6.353 -9.793,8.169 -2.185,1.017 -4.469,1.705 -6.875,1.913 -0.298,0.026 -0.366,-0.467 -0.071,-0.524 4.239,-0.82 8.26,-2.466 11.634,-5.194 3.439,-2.78 5.891,-6.297 7.517,-10.391 0.888,-2.235 1.774,-4.553 3.604,-6.202 C -0.125,-0.617 0.257,-0.239 0,0"
         style="fill:#231f20;fill-opacity:1;fill-rule:nonzero;stroke:none"
         id="path56447" />
    </g>
    <g
       id="g56449"
       transform="matrix(0.35277777,0,0,-0.35277777,33.796785,91.230859)"
       clip-path="url(#clipPath67758)">
      <path
         d="m 0,0 c -8.756,1.355 -16.548,6.888 -20.485,14.852 -1.114,2.253 -1.752,4.589 -2.355,7.014 -0.093,0.373 -0.734,0.306 -0.688,-0.093 0.257,-2.204 1.013,-4.392 1.899,-6.417 0.906,-2.068 2.069,-4.019 3.45,-5.806 2.806,-3.633 6.518,-6.489 10.733,-8.307 2.336,-1.008 4.832,-1.619 7.354,-1.922 C 0.291,-0.725 0.385,-0.06 0,0"
         style="fill:#231f20;fill-opacity:1;fill-rule:nonzero;stroke:none"
         id="path56451" />
    </g>
    <g
       id="g56453"
       transform="matrix(0.35277777,0,0,-0.35277777,33.950772,91.288926)"
       clip-path="url(#clipPath67752)">
      <path
         d="m 0,0 c -3.934,2.549 -7.548,5.576 -10.741,9.009 -1.547,1.664 -3.014,3.4 -4.551,5.074 -1.479,1.609 -3.03,3.3 -4.837,4.547 -0.273,0.189 -0.602,-0.238 -0.355,-0.46 1.694,-1.52 3.35,-3.017 4.89,-4.699 1.558,-1.704 3.049,-3.468 4.631,-5.151 C -7.788,4.941 -4.206,1.988 -0.282,-0.484 0.024,-0.677 0.301,-0.195 0,0"
         style="fill:#231f20;fill-opacity:1;fill-rule:nonzero;stroke:none"
         id="path56455" />
    </g>
    <g
       id="g56457"
       transform="matrix(0.35277777,0,0,-0.35277777,32.791156,91.544726)"
       clip-path="url(#clipPath67746)">
      <path
         d="m 0,0 c -6.036,-4.625 -5.979,-13.786 -12.228,-18.187 -1.002,-0.707 -2.105,-1.239 -3.271,-1.612 -1.216,-0.389 -2.456,-0.437 -3.695,-0.685 -0.337,-0.068 -0.33,-0.603 0,-0.675 2.038,-0.445 4.469,0.4 6.239,1.377 1.761,0.971 3.205,2.372 4.365,4.004 2.234,3.142 3.343,6.89 5.098,10.288 0.98,1.9 2.192,3.664 3.81,5.078 C 0.539,-0.219 0.238,0.182 0,0"
         style="fill:#231f20;fill-opacity:1;fill-rule:nonzero;stroke:none"
         id="path56459" />
    </g>
    <g
       id="g56461"
       transform="matrix(0.35277777,0,0,-0.35277777,32.583582,91.734873)"
       clip-path="url(#clipPath67740)">
      <path
         d="m 0,0 c -7.626,-0.671 -14.338,-5.995 -16.828,-13.219 -0.412,-1.195 -0.743,-2.417 -1.153,-3.613 -0.203,-0.591 -0.426,-1.176 -0.696,-1.74 -0.266,-0.557 -0.617,-1.068 -0.852,-1.638 -0.126,-0.305 0.308,-0.482 0.511,-0.298 0.698,0.632 1.099,1.63 1.455,2.482 0.406,0.97 0.73,1.971 1.044,2.974 0.591,1.888 1.273,3.691 2.308,5.385 1.94,3.179 4.797,5.697 8.109,7.374 C -4.195,-1.328 -2.12,-0.666 0,-0.385 0.239,-0.354 0.251,0.022 0,0"
         style="fill:#231f20;fill-opacity:1;fill-rule:nonzero;stroke:none"
         id="path56463" />
    </g>
    <g
       id="g56465"
       transform="matrix(0.35277777,0,0,-0.35277777,32.389272,91.566915)"
       clip-path="url(#clipPath67734)">
      <path
         d="m 0,0 c -3.557,-1.796 -6.346,-4.762 -8.577,-8.015 -1.119,-1.633 -2.065,-3.36 -3.026,-5.088 -0.465,-0.838 -0.952,-1.68 -1.561,-2.424 -0.642,-0.785 -1.423,-1.331 -2.276,-1.862 -0.289,-0.18 -0.101,-0.619 0.229,-0.544 1.752,0.397 2.975,2.147 3.833,3.608 1.008,1.716 1.864,3.507 2.934,5.189 2.232,3.509 5.035,6.658 8.673,8.743 C 0.485,-0.246 0.26,0.131 0,0"
         style="fill:#231f20;fill-opacity:1;fill-rule:nonzero;stroke:none"
         id="path56467" />
    </g>
    <g
       id="g56469"
       transform="matrix(0.35277777,0,0,-0.35277777,42.014178,91.853406)"
       clip-path="url(#clipPath67728)">
      <path
         d="m 0,0 c -1.344,3.838 -3.686,7.255 -6.756,9.92 -3.304,2.869 -7.284,4.498 -11.409,5.813 -1.274,0.406 -2.558,0.78 -3.846,1.14 -1.232,0.344 -2.477,0.756 -3.752,0.9 -0.316,0.036 -0.459,-0.484 -0.165,-0.611 0.978,-0.424 2.029,-0.656 3.054,-0.936 1.107,-0.303 2.211,-0.614 3.31,-0.945 2.171,-0.654 4.332,-1.375 6.41,-2.288 3.671,-1.614 6.894,-4.059 9.337,-7.252 1.369,-1.79 2.496,-3.779 3.311,-5.88 C -0.386,-0.448 0.113,-0.323 0,0"
         style="fill:#231f20;fill-opacity:1;fill-rule:nonzero;stroke:none"
         id="path56471" />
    </g>
    <g
       id="g56473"
       transform="matrix(0.35277777,0,0,-0.35277777,42.022292,91.725242)"
       clip-path="url(#clipPath67722)">
      <path
         d="m 0,0 c -7.989,2.403 -15.977,5.697 -21.741,11.951 -0.777,0.842 -1.503,1.73 -2.164,2.666 -0.616,0.869 -1.079,1.863 -1.736,2.696 -0.192,0.244 -0.601,-0.021 -0.512,-0.298 0.291,-0.903 0.909,-1.743 1.44,-2.521 0.547,-0.805 1.138,-1.58 1.766,-2.323 1.309,-1.548 2.783,-2.945 4.376,-4.199 3.356,-2.64 7.161,-4.619 11.135,-6.153 C -5.05,0.898 -2.602,0.18 -0.126,-0.456 0.169,-0.531 0.291,-0.087 0,0"
         style="fill:#231f20;fill-opacity:1;fill-rule:nonzero;stroke:none"
         id="path56475" />
    </g>
    <g
       id="g56477"
       transform="matrix(0.35277777,0,0,-0.35277777,42.038308,91.71988)"
       clip-path="url(#clipPath67716)">
      <path
         d="m 0,0 c -3.012,2.801 -6.199,5.399 -9.558,7.772 -1.698,1.2 -3.435,2.344 -5.209,3.429 -1.684,1.03 -3.457,2.27 -5.345,2.883 -0.266,0.087 -0.364,-0.271 -0.175,-0.415 0.823,-0.631 1.772,-1.093 2.673,-1.603 0.84,-0.475 1.673,-0.963 2.498,-1.463 1.745,-1.06 3.456,-2.175 5.129,-3.344 3.355,-2.344 6.565,-4.902 9.604,-7.642 C -0.125,-0.616 0.257,-0.239 0,0"
         style="fill:#231f20;fill-opacity:1;fill-rule:nonzero;stroke:none"
         id="path56479" />
    </g>
    <g
       id="g56481"
       transform="matrix(0.35277777,0,0,-0.35277777,43.318856,92.203397)"
       clip-path="url(#clipPath67710)">
      <path
         d="m 0,0 c -3.815,-1.72 -6.496,-5.025 -9.145,-8.139 -1.37,-1.61 -2.772,-3.208 -4.387,-4.58 -1.388,-1.178 -2.971,-2.135 -4.621,-2.901 -1.802,-0.837 -3.871,-1.551 -5.885,-1.478 -0.423,0.016 -0.538,-0.693 -0.102,-0.756 1.756,-0.255 3.489,0.163 5.119,0.808 1.737,0.686 3.405,1.587 4.907,2.698 3.447,2.552 5.81,6.204 8.678,9.33 1.662,1.813 3.478,3.468 5.661,4.633 C 0.483,-0.248 0.257,0.116 0,0"
         style="fill:#231f20;fill-opacity:1;fill-rule:nonzero;stroke:none"
         id="path56483" />
    </g>
    <g
       id="g56485"
       transform="matrix(0.35277777,0,0,-0.35277777,43.228933,92.173799)"
       clip-path="url(#clipPath67704)">
      <path
         d="m 0,0 c -8.14,0.05 -17.498,-2.491 -21.537,-10.273 -1.151,-2.217 -1.62,-4.708 -2.626,-6.988 -0.172,-0.39 0.34,-0.711 0.582,-0.34 1.154,1.768 1.487,3.931 2.325,5.843 0.761,1.735 1.876,3.317 3.199,4.669 2.856,2.917 6.635,4.718 10.577,5.638 2.449,0.571 4.971,0.83 7.48,0.926 0.336,0.013 0.339,0.523 0,0.525"
         style="fill:#231f20;fill-opacity:1;fill-rule:nonzero;stroke:none"
         id="path56487" />
    </g>
    <g
       id="g56489"
       transform="matrix(0.35277777,0,0,-0.35277777,43.039103,92.144836)"
       clip-path="url(#clipPath67698)">
      <path
         d="m 0,0 c -4.061,-1.172 -7.883,-3.116 -11.246,-5.675 -1.708,-1.299 -3.242,-2.772 -4.742,-4.302 -0.782,-0.797 -1.564,-1.594 -2.361,-2.377 -0.397,-0.39 -0.797,-0.777 -1.21,-1.151 -0.434,-0.394 -0.933,-0.749 -1.299,-1.209 -0.161,-0.201 0.033,-0.456 0.27,-0.35 0.934,0.416 1.748,1.296 2.493,1.984 0.82,0.757 1.595,1.562 2.378,2.358 1.482,1.507 2.989,2.983 4.65,4.295 3.338,2.637 7.164,4.609 11.209,5.912 C 0.467,-0.41 0.332,0.096 0,0"
         style="fill:#231f20;fill-opacity:1;fill-rule:nonzero;stroke:none"
         id="path56491" />
    </g>
  </g>
</svg>
