<svg width="68.308mm" height="6.7313mm" version="1.1" viewBox="0 0 68.308 6.7313" xmlns="http://www.w3.org/2000/svg">
 <g transform="translate(-34.593 -106.02)">
  <g transform="matrix(.35278 0 0 -.35278 50.135 112.32)" clip-path="url(#clipPath79340)">
   <path d="m0 0c0.758 1.601 1.664 2.959 3.225 3.953 1.014 0.648 2.141 1.087 3.285 1.466-0.066-0.048-0.136-0.089-0.2-0.139-1.141-0.886-1.946-2.015-3.217-2.759-0.362-0.211-0.034-0.774 0.328-0.562 1.683 0.984 2.913 2.439 4.518 3.506-0.746-3.319-4.754-5.26-7.939-5.465m-38.612 7.524c-1.139 0.409-2.345 1.041-3.249 1.856-0.652 0.587-2.554 3.148-0.849 3.3 0.618 0.055 1.705-0.536 2.282-0.753 0.936-0.352 1.843-0.753 2.705-1.258 1.517-0.889 2.723-2.054 3.647-3.507-0.803 0.267-1.604 0.558-2.401 0.884-0.386 0.158-0.555-0.47-0.172-0.627 0.429-0.176 0.862-0.319 1.294-0.478-1.105 0.032-2.196 0.203-3.257 0.583m-3.67-7c2.985 1.777 6.212 2.715 9.662 2.748-1.068-0.452-2.112-0.982-3.123-1.61-0.355-0.221-0.028-0.783 0.328-0.561 1.186 0.737 2.412 1.343 3.672 1.831-2.536-3.425-6.744-4.531-10.539-2.408m27.37 12.05c1.888 0.013 3.741-0.178 5.571-0.684 1.582-0.438 3.834-1.085 5.091-2.391-1.439 0.395-2.891 0.744-4.364 1.028-0.408 0.079-0.583-0.548-0.173-0.627 1.366-0.262 2.712-0.587 4.049-0.944-3.707-0.734-8.178 0.165-10.174 3.618m64.052-7.675c-3.48 1.47-6.987 2.593-10.521 3.419-1.226 1.482-2.637 2.744-4.21 3.771-1.495 3.604-6.57 6.035-10.324 5.753-0.414-0.031-0.418-0.682 0-0.651 3.063 0.231 7.485-1.639 9.263-4.459-0.797 0.447-1.628 0.841-2.501 1.168-0.393 0.147-0.562-0.481-0.173-0.627 0.764-0.287 1.498-0.626 2.201-1.01-3.118-0.121-7.396 1.372-7.95 4.687-0.069 0.412-0.696 0.237-0.627-0.173 0.663-3.969 6.071-5.565 9.53-5.073 1.373-0.87 2.612-1.932 3.721-3.15-6.17 1.333-12.422 1.759-18.76 1.442 0.038 0.213-0.122 0.463-0.389 0.38-0.516-0.161-1.029-0.333-1.542-0.504-2.962-0.215-5.944-0.577-8.945-1.085-2.138-0.362-4.291-0.76-6.453-1.157-1.537 0.595-3.092 1.118-4.664 1.58-0.926 1.54-2.786 2.212-4.415 2.809-2.465 0.903-5.02 1.261-7.635 1.209-0.211-4e-3 -0.314-0.171-0.313-0.334-0.094-0.093-0.142-0.234-0.064-0.383 2.167-4.164 7.59-5.12 11.784-4.017 0.108 0.028 0.172 0.094 0.205 0.172l0.044-0.015c0.063-0.053 0.136-0.072 0.21-0.065 1.206-0.354 2.399-0.755 3.583-1.187-11.105-2.027-22.431-3.84-33.31-0.54-2.17 3.996-6.268 5.513-10.407 6.743-0.165 0.047-0.362-0.059-0.401-0.228-1.223-5.274 6.38-7.443 10.295-7.027 2.279-0.715 4.582-1.218 6.904-1.528-1.551-0.173-3.061-0.514-4.522-1.018-0.052 0.062-0.13 0.106-0.233 0.111-4.174 0.198-8.088-0.884-11.617-3.108-0.211-0.133-0.209-0.428 0-0.562 4.45-2.845 9.618-1.364 12.364 3.015 7e-3 0.013 6e-3 0.023 0.012 0.036 2.026 0.663 4.14 1.018 6.354 1.024 0.167 1e-3 0.263 0.105 0.298 0.229 9.134-0.697 18.481 1.108 27.511 2.782 3.715 0.689 7.446 1.336 11.196 1.772-1.717-0.624-3.414-1.3-5.081-2.051-0.493-0.222-0.986-0.445-1.47-0.688-0.066 0.11-0.186 0.18-0.345 0.131-1.825-0.558-3.695-1.152-5.273-2.261-1.601-1.124-2.488-2.657-3.268-4.415-0.097-0.216 0.014-0.49 0.28-0.489 3.787 0.017 8.645 2.432 9.177 6.568 0.123 0.067 0.241 0.139 0.37 0.201 2.726 1.292 5.554 2.354 8.42 3.287 2.729 0.23 5.468 0.328 8.22 0.22 4.234-0.167 8.42-0.778 12.518-1.767 0.085-0.087 0.185-0.102 0.276-0.069 3.527-0.868 6.989-2.01 10.35-3.429 0.379-0.16 0.711 0.399 0.327 0.561" fill="#303030"/>
  </g>
  <g transform="matrix(.35278 0 0 -.35278 98.557 111.29)" clip-path="url(#clipPath79334)">
   <path d="m0 0c1.259-0.487 2.483-1.094 3.672-1.832 0.355-0.221 0.682 0.341 0.328 0.561-1.011 0.628-2.055 1.159-3.123 1.611 3.451-0.033 6.678-0.973 9.662-2.747-3.797-2.124-8.006-1.015-10.539 2.407m5.709 7.578c0.935 0.581 1.946 1.029 2.976 1.416 0.577 0.217 1.664 0.809 2.282 0.753 1.705-0.151-0.197-2.713-0.849-3.3-0.779-0.701-1.73-1.211-2.688-1.617-1.236-0.524-2.506-0.773-3.807-0.817 0.428 0.157 0.857 0.299 1.283 0.473 0.382 0.157 0.215 0.786-0.173 0.627-0.798-0.327-1.601-0.618-2.406-0.884 0.867 1.364 1.982 2.478 3.382 3.349m-40.677-6.557c1.555-0.991 2.467-2.357 3.225-3.954-3.186 0.205-7.194 2.146-7.94 5.465 1.607-1.067 2.831-2.518 4.519-3.506 0.362-0.212 0.689 0.35 0.328 0.562-1.257 0.735-2.061 1.849-3.184 2.734-0.076 0.06-0.159 0.109-0.236 0.165 1.145-0.38 2.273-0.819 3.288-1.466m18.14 8.626c-1.993-3.456-6.469-4.358-10.177-3.624 1.336 0.358 2.683 0.682 4.048 0.945 0.411 0.079 0.237 0.706-0.173 0.627-1.488-0.287-2.955-0.641-4.408-1.04 2.226 2.573 7.615 3.112 10.71 3.092m16.563-8.668c-0.102-4e-3 -0.179-0.048-0.232-0.111-1.461 0.504-2.971 0.845-4.524 1.019 2.323 0.309 4.626 0.812 6.906 1.527 3.916-0.416 11.517 1.752 10.295 7.027-0.039 0.169-0.238 0.276-0.401 0.228-4.139-1.23-8.237-2.745-10.407-6.742-10.878-3.3-22.208-1.49-33.314 0.538 1.185 0.432 2.38 0.834 3.586 1.188 0.075-7e-3 0.148 0.012 0.21 0.066 0.015 5e-3 0.03 0.01 0.044 0.013 0.033-0.077 0.097-0.142 0.205-0.17 4.195-1.104 9.618-0.148 11.785 4.016 0.078 0.15 0.03 0.29-0.064 0.383 1e-3 0.163-0.102 0.33-0.313 0.334-2.616 0.053-5.169-0.306-7.635-1.209-1.631-0.598-3.489-1.268-4.415-2.809-1.573-0.463-3.129-0.986-4.667-1.581-2.161 0.398-4.314 0.796-6.451 1.158-3.003 0.51-5.986 0.873-8.951 1.088-0.511 0.169-1.021 0.341-1.536 0.501-0.265 0.083-0.425-0.165-0.389-0.378-6.337 0.317-12.589-0.11-18.758-1.443 1.107 1.218 2.347 2.28 3.72 3.149 3.462-0.493 8.867 1.104 9.53 5.074 0.068 0.409-0.559 0.585-0.627 0.173-0.554-3.316-4.832-4.809-7.95-4.688 0.703 0.385 1.435 0.724 2.201 1.011 0.388 0.145 0.22 0.774-0.173 0.627-0.873-0.327-1.704-0.722-2.501-1.168 1.781 2.821 6.216 4.688 9.263 4.459 0.417-0.031 0.415 0.619 0 0.65-3.756 0.282-8.829-2.147-10.324-5.753-1.574-1.027-2.984-2.289-4.21-3.769-3.534-0.827-7.041-1.95-10.522-3.42-0.384-0.162-0.053-0.723 0.328-0.562 3.36 1.419 6.819 2.563 10.345 3.43 0.094-0.035 0.198-0.021 0.287 0.073 3.946 0.952 7.976 1.55 12.052 1.74 2.912 0.136 5.81 0.04 8.696-0.204 2.862-0.93 5.685-1.991 8.404-3.281 0.128-0.061 0.246-0.134 0.37-0.201 0.532-4.136 5.389-6.551 9.176-6.567 0.267-1e-3 0.377 0.272 0.281 0.489-0.78 1.757-1.67 3.287-3.268 4.415-1.574 1.11-3.451 1.703-5.273 2.261-0.16 0.048-0.28-0.022-0.345-0.131-0.484 0.241-0.979 0.466-1.47 0.687-1.661 0.749-3.353 1.423-5.063 2.046 3.742-0.434 7.467-1.079 11.177-1.766 9.032-1.673 18.377-3.48 27.511-2.783 0.034-0.124 0.132-0.227 0.298-0.228 2.216-7e-3 4.329-0.362 6.354-1.024 5e-3 -0.012 5e-3 -0.024 0.013-0.037 2.745-4.379 7.912-5.86 12.364-3.014 0.209 0.133 0.21 0.428 0 0.561-3.53 2.225-7.445 3.307-11.618 3.108" fill="#303030"/>
  </g>
 </g>
</svg>
